<?xml version="1.0" encoding="utf-8" standalone="no"?>
<!DOCTYPE svg PUBLIC "-//W3C//DTD SVG 1.1//EN"
  "http://www.w3.org/Graphics/SVG/1.1/DTD/svg11.dtd">
<svg xmlns:xlink="http://www.w3.org/1999/xlink" width="1144.492813pt" height="369.99625pt" viewBox="0 0 1144.492813 369.99625" xmlns="http://www.w3.org/2000/svg" version="1.1">
 <metadata>
  <rdf:RDF xmlns:dc="http://purl.org/dc/elements/1.1/" xmlns:cc="http://creativecommons.org/ns#" xmlns:rdf="http://www.w3.org/1999/02/22-rdf-syntax-ns#">
   <cc:Work>
    <dc:type rdf:resource="http://purl.org/dc/dcmitype/StillImage"/>
    <dc:date>2026-02-04T20:33:05.076152</dc:date>
    <dc:format>image/svg+xml</dc:format>
    <dc:creator>
     <cc:Agent>
      <dc:title>Matplotlib v3.10.7, https://matplotlib.org/</dc:title>
     </cc:Agent>
    </dc:creator>
   </cc:Work>
  </rdf:RDF>
 </metadata>
 <defs>
  <style type="text/css">*{stroke-linejoin: round; stroke-linecap: butt}</style>
 </defs>
 <g id="figure_1">
  <g id="patch_1">
   <path d="M 0 369.99625 
L 1144.492813 369.99625 
L 1144.492813 0 
L 0 0 
z
" style="fill: #ffffff"/>
  </g>
  <g id="axes_1">
   <g id="patch_2">
    <path d="M 40.28125 335.94 
L 377.927917 335.94 
L 377.927917 65.76 
L 40.28125 65.76 
z
" style="fill: #ffffff"/>
   </g>
   <g id="matplotlib.axis_1">
    <g id="xtick_1">
     <g id="line2d_1">
      <path d="M 40.28125 335.94 
L 40.28125 65.76 
" clip-path="url(#p0ce4181a6c)" style="fill: none; stroke: #cccccc; stroke-opacity: 0.3; stroke-width: 0.8; stroke-linecap: round"/>
     </g>
     <g id="line2d_2"/>
     <g id="text_1">
      <!-- 0.0 -->
      <g style="fill: #262626" transform="translate(32.329688 347.038437) scale(0.1 -0.1)">
       <defs>
        <path id="DejaVuSans-30" d="M 2034 4250 
Q 1547 4250 1301 3770 
Q 1056 3291 1056 2328 
Q 1056 1369 1301 889 
Q 1547 409 2034 409 
Q 2525 409 2770 889 
Q 3016 1369 3016 2328 
Q 3016 3291 2770 3770 
Q 2525 4250 2034 4250 
z
M 2034 4750 
Q 2819 4750 3233 4129 
Q 3647 3509 3647 2328 
Q 3647 1150 3233 529 
Q 2819 -91 2034 -91 
Q 1250 -91 836 529 
Q 422 1150 422 2328 
Q 422 3509 836 4129 
Q 1250 4750 2034 4750 
z
" transform="scale(0.015625)"/>
        <path id="DejaVuSans-2e" d="M 684 794 
L 1344 794 
L 1344 0 
L 684 0 
L 684 794 
z
" transform="scale(0.015625)"/>
       </defs>
       <use xlink:href="#DejaVuSans-30"/>
       <use xlink:href="#DejaVuSans-2e" transform="translate(63.623047 0)"/>
       <use xlink:href="#DejaVuSans-30" transform="translate(95.410156 0)"/>
      </g>
     </g>
    </g>
    <g id="xtick_2">
     <g id="line2d_3">
      <path d="M 107.810583 335.94 
L 107.810583 65.76 
" clip-path="url(#p0ce4181a6c)" style="fill: none; stroke: #cccccc; stroke-opacity: 0.3; stroke-width: 0.8; stroke-linecap: round"/>
     </g>
     <g id="line2d_4"/>
     <g id="text_2">
      <!-- 0.2 -->
      <g style="fill: #262626" transform="translate(99.859021 347.038437) scale(0.1 -0.1)">
       <defs>
        <path id="DejaVuSans-32" d="M 1228 531 
L 3431 531 
L 3431 0 
L 469 0 
L 469 531 
Q 828 903 1448 1529 
Q 2069 2156 2228 2338 
Q 2531 2678 2651 2914 
Q 2772 3150 2772 3378 
Q 2772 3750 2511 3984 
Q 2250 4219 1831 4219 
Q 1534 4219 1204 4116 
Q 875 4013 500 3803 
L 500 4441 
Q 881 4594 1212 4672 
Q 1544 4750 1819 4750 
Q 2544 4750 2975 4387 
Q 3406 4025 3406 3419 
Q 3406 3131 3298 2873 
Q 3191 2616 2906 2266 
Q 2828 2175 2409 1742 
Q 1991 1309 1228 531 
z
" transform="scale(0.015625)"/>
       </defs>
       <use xlink:href="#DejaVuSans-30"/>
       <use xlink:href="#DejaVuSans-2e" transform="translate(63.623047 0)"/>
       <use xlink:href="#DejaVuSans-32" transform="translate(95.410156 0)"/>
      </g>
     </g>
    </g>
    <g id="xtick_3">
     <g id="line2d_5">
      <path d="M 175.339917 335.94 
L 175.339917 65.76 
" clip-path="url(#p0ce4181a6c)" style="fill: none; stroke: #cccccc; stroke-opacity: 0.3; stroke-width: 0.8; stroke-linecap: round"/>
     </g>
     <g id="line2d_6"/>
     <g id="text_3">
      <!-- 0.4 -->
      <g style="fill: #262626" transform="translate(167.388354 347.038437) scale(0.1 -0.1)">
       <defs>
        <path id="DejaVuSans-34" d="M 2419 4116 
L 825 1625 
L 2419 1625 
L 2419 4116 
z
M 2253 4666 
L 3047 4666 
L 3047 1625 
L 3713 1625 
L 3713 1100 
L 3047 1100 
L 3047 0 
L 2419 0 
L 2419 1100 
L 313 1100 
L 313 1709 
L 2253 4666 
z
" transform="scale(0.015625)"/>
       </defs>
       <use xlink:href="#DejaVuSans-30"/>
       <use xlink:href="#DejaVuSans-2e" transform="translate(63.623047 0)"/>
       <use xlink:href="#DejaVuSans-34" transform="translate(95.410156 0)"/>
      </g>
     </g>
    </g>
    <g id="xtick_4">
     <g id="line2d_7">
      <path d="M 242.86925 335.94 
L 242.86925 65.76 
" clip-path="url(#p0ce4181a6c)" style="fill: none; stroke: #cccccc; stroke-opacity: 0.3; stroke-width: 0.8; stroke-linecap: round"/>
     </g>
     <g id="line2d_8"/>
     <g id="text_4">
      <!-- 0.6 -->
      <g style="fill: #262626" transform="translate(234.917688 347.038437) scale(0.1 -0.1)">
       <defs>
        <path id="DejaVuSans-36" d="M 2113 2584 
Q 1688 2584 1439 2293 
Q 1191 2003 1191 1497 
Q 1191 994 1439 701 
Q 1688 409 2113 409 
Q 2538 409 2786 701 
Q 3034 994 3034 1497 
Q 3034 2003 2786 2293 
Q 2538 2584 2113 2584 
z
M 3366 4563 
L 3366 3988 
Q 3128 4100 2886 4159 
Q 2644 4219 2406 4219 
Q 1781 4219 1451 3797 
Q 1122 3375 1075 2522 
Q 1259 2794 1537 2939 
Q 1816 3084 2150 3084 
Q 2853 3084 3261 2657 
Q 3669 2231 3669 1497 
Q 3669 778 3244 343 
Q 2819 -91 2113 -91 
Q 1303 -91 875 529 
Q 447 1150 447 2328 
Q 447 3434 972 4092 
Q 1497 4750 2381 4750 
Q 2619 4750 2861 4703 
Q 3103 4656 3366 4563 
z
" transform="scale(0.015625)"/>
       </defs>
       <use xlink:href="#DejaVuSans-30"/>
       <use xlink:href="#DejaVuSans-2e" transform="translate(63.623047 0)"/>
       <use xlink:href="#DejaVuSans-36" transform="translate(95.410156 0)"/>
      </g>
     </g>
    </g>
    <g id="xtick_5">
     <g id="line2d_9">
      <path d="M 310.398583 335.94 
L 310.398583 65.76 
" clip-path="url(#p0ce4181a6c)" style="fill: none; stroke: #cccccc; stroke-opacity: 0.3; stroke-width: 0.8; stroke-linecap: round"/>
     </g>
     <g id="line2d_10"/>
     <g id="text_5">
      <!-- 0.8 -->
      <g style="fill: #262626" transform="translate(302.447021 347.038437) scale(0.1 -0.1)">
       <defs>
        <path id="DejaVuSans-38" d="M 2034 2216 
Q 1584 2216 1326 1975 
Q 1069 1734 1069 1313 
Q 1069 891 1326 650 
Q 1584 409 2034 409 
Q 2484 409 2743 651 
Q 3003 894 3003 1313 
Q 3003 1734 2745 1975 
Q 2488 2216 2034 2216 
z
M 1403 2484 
Q 997 2584 770 2862 
Q 544 3141 544 3541 
Q 544 4100 942 4425 
Q 1341 4750 2034 4750 
Q 2731 4750 3128 4425 
Q 3525 4100 3525 3541 
Q 3525 3141 3298 2862 
Q 3072 2584 2669 2484 
Q 3125 2378 3379 2068 
Q 3634 1759 3634 1313 
Q 3634 634 3220 271 
Q 2806 -91 2034 -91 
Q 1263 -91 848 271 
Q 434 634 434 1313 
Q 434 1759 690 2068 
Q 947 2378 1403 2484 
z
M 1172 3481 
Q 1172 3119 1398 2916 
Q 1625 2713 2034 2713 
Q 2441 2713 2670 2916 
Q 2900 3119 2900 3481 
Q 2900 3844 2670 4047 
Q 2441 4250 2034 4250 
Q 1625 4250 1398 4047 
Q 1172 3844 1172 3481 
z
" transform="scale(0.015625)"/>
       </defs>
       <use xlink:href="#DejaVuSans-30"/>
       <use xlink:href="#DejaVuSans-2e" transform="translate(63.623047 0)"/>
       <use xlink:href="#DejaVuSans-38" transform="translate(95.410156 0)"/>
      </g>
     </g>
    </g>
    <g id="xtick_6">
     <g id="line2d_11">
      <path d="M 377.927917 335.94 
L 377.927917 65.76 
" clip-path="url(#p0ce4181a6c)" style="fill: none; stroke: #cccccc; stroke-opacity: 0.3; stroke-width: 0.8; stroke-linecap: round"/>
     </g>
     <g id="line2d_12"/>
     <g id="text_6">
      <!-- 1.0 -->
      <g style="fill: #262626" transform="translate(369.976354 347.038437) scale(0.1 -0.1)">
       <defs>
        <path id="DejaVuSans-31" d="M 794 531 
L 1825 531 
L 1825 4091 
L 703 3866 
L 703 4441 
L 1819 4666 
L 2450 4666 
L 2450 531 
L 3481 531 
L 3481 0 
L 794 0 
L 794 531 
z
" transform="scale(0.015625)"/>
       </defs>
       <use xlink:href="#DejaVuSans-31"/>
       <use xlink:href="#DejaVuSans-2e" transform="translate(63.623047 0)"/>
       <use xlink:href="#DejaVuSans-30" transform="translate(95.410156 0)"/>
      </g>
     </g>
    </g>
    <g id="text_7">
     <!-- Epsilon -->
     <g style="fill: #262626" transform="translate(191.160052 360.716562) scale(0.1 -0.1)">
      <defs>
       <path id="DejaVuSans-45" d="M 628 4666 
L 3578 4666 
L 3578 4134 
L 1259 4134 
L 1259 2753 
L 3481 2753 
L 3481 2222 
L 1259 2222 
L 1259 531 
L 3634 531 
L 3634 0 
L 628 0 
L 628 4666 
z
" transform="scale(0.015625)"/>
       <path id="DejaVuSans-70" d="M 1159 525 
L 1159 -1331 
L 581 -1331 
L 581 3500 
L 1159 3500 
L 1159 2969 
Q 1341 3281 1617 3432 
Q 1894 3584 2278 3584 
Q 2916 3584 3314 3078 
Q 3713 2572 3713 1747 
Q 3713 922 3314 415 
Q 2916 -91 2278 -91 
Q 1894 -91 1617 61 
Q 1341 213 1159 525 
z
M 3116 1747 
Q 3116 2381 2855 2742 
Q 2594 3103 2138 3103 
Q 1681 3103 1420 2742 
Q 1159 2381 1159 1747 
Q 1159 1113 1420 752 
Q 1681 391 2138 391 
Q 2594 391 2855 752 
Q 3116 1113 3116 1747 
z
" transform="scale(0.015625)"/>
       <path id="DejaVuSans-73" d="M 2834 3397 
L 2834 2853 
Q 2591 2978 2328 3040 
Q 2066 3103 1784 3103 
Q 1356 3103 1142 2972 
Q 928 2841 928 2578 
Q 928 2378 1081 2264 
Q 1234 2150 1697 2047 
L 1894 2003 
Q 2506 1872 2764 1633 
Q 3022 1394 3022 966 
Q 3022 478 2636 193 
Q 2250 -91 1575 -91 
Q 1294 -91 989 -36 
Q 684 19 347 128 
L 347 722 
Q 666 556 975 473 
Q 1284 391 1588 391 
Q 1994 391 2212 530 
Q 2431 669 2431 922 
Q 2431 1156 2273 1281 
Q 2116 1406 1581 1522 
L 1381 1569 
Q 847 1681 609 1914 
Q 372 2147 372 2553 
Q 372 3047 722 3315 
Q 1072 3584 1716 3584 
Q 2034 3584 2315 3537 
Q 2597 3491 2834 3397 
z
" transform="scale(0.015625)"/>
       <path id="DejaVuSans-69" d="M 603 3500 
L 1178 3500 
L 1178 0 
L 603 0 
L 603 3500 
z
M 603 4863 
L 1178 4863 
L 1178 4134 
L 603 4134 
L 603 4863 
z
" transform="scale(0.015625)"/>
       <path id="DejaVuSans-6c" d="M 603 4863 
L 1178 4863 
L 1178 0 
L 603 0 
L 603 4863 
z
" transform="scale(0.015625)"/>
       <path id="DejaVuSans-6f" d="M 1959 3097 
Q 1497 3097 1228 2736 
Q 959 2375 959 1747 
Q 959 1119 1226 758 
Q 1494 397 1959 397 
Q 2419 397 2687 759 
Q 2956 1122 2956 1747 
Q 2956 2369 2687 2733 
Q 2419 3097 1959 3097 
z
M 1959 3584 
Q 2709 3584 3137 3096 
Q 3566 2609 3566 1747 
Q 3566 888 3137 398 
Q 2709 -91 1959 -91 
Q 1206 -91 779 398 
Q 353 888 353 1747 
Q 353 2609 779 3096 
Q 1206 3584 1959 3584 
z
" transform="scale(0.015625)"/>
       <path id="DejaVuSans-6e" d="M 3513 2113 
L 3513 0 
L 2938 0 
L 2938 2094 
Q 2938 2591 2744 2837 
Q 2550 3084 2163 3084 
Q 1697 3084 1428 2787 
Q 1159 2491 1159 1978 
L 1159 0 
L 581 0 
L 581 3500 
L 1159 3500 
L 1159 2956 
Q 1366 3272 1645 3428 
Q 1925 3584 2291 3584 
Q 2894 3584 3203 3211 
Q 3513 2838 3513 2113 
z
" transform="scale(0.015625)"/>
      </defs>
      <use xlink:href="#DejaVuSans-45"/>
      <use xlink:href="#DejaVuSans-70" transform="translate(63.183594 0)"/>
      <use xlink:href="#DejaVuSans-73" transform="translate(126.660156 0)"/>
      <use xlink:href="#DejaVuSans-69" transform="translate(178.759766 0)"/>
      <use xlink:href="#DejaVuSans-6c" transform="translate(206.542969 0)"/>
      <use xlink:href="#DejaVuSans-6f" transform="translate(234.326172 0)"/>
      <use xlink:href="#DejaVuSans-6e" transform="translate(295.507812 0)"/>
     </g>
    </g>
   </g>
   <g id="matplotlib.axis_2">
    <g id="ytick_1">
     <g id="line2d_13">
      <path d="M 40.28125 335.94 
L 377.927917 335.94 
" clip-path="url(#p0ce4181a6c)" style="fill: none; stroke: #cccccc; stroke-opacity: 0.3; stroke-width: 0.8; stroke-linecap: round"/>
     </g>
     <g id="line2d_14"/>
     <g id="text_8">
      <!-- 0.0 -->
      <g style="fill: #262626" transform="translate(20.878125 339.739219) scale(0.1 -0.1)">
       <use xlink:href="#DejaVuSans-30"/>
       <use xlink:href="#DejaVuSans-2e" transform="translate(63.623047 0)"/>
       <use xlink:href="#DejaVuSans-30" transform="translate(95.410156 0)"/>
      </g>
     </g>
    </g>
    <g id="ytick_2">
     <g id="line2d_15">
      <path d="M 40.28125 284.477143 
L 377.927917 284.477143 
" clip-path="url(#p0ce4181a6c)" style="fill: none; stroke: #cccccc; stroke-opacity: 0.3; stroke-width: 0.8; stroke-linecap: round"/>
     </g>
     <g id="line2d_16"/>
     <g id="text_9">
      <!-- 0.2 -->
      <g style="fill: #262626" transform="translate(20.878125 288.276362) scale(0.1 -0.1)">
       <use xlink:href="#DejaVuSans-30"/>
       <use xlink:href="#DejaVuSans-2e" transform="translate(63.623047 0)"/>
       <use xlink:href="#DejaVuSans-32" transform="translate(95.410156 0)"/>
      </g>
     </g>
    </g>
    <g id="ytick_3">
     <g id="line2d_17">
      <path d="M 40.28125 233.014286 
L 377.927917 233.014286 
" clip-path="url(#p0ce4181a6c)" style="fill: none; stroke: #cccccc; stroke-opacity: 0.3; stroke-width: 0.8; stroke-linecap: round"/>
     </g>
     <g id="line2d_18"/>
     <g id="text_10">
      <!-- 0.4 -->
      <g style="fill: #262626" transform="translate(20.878125 236.813504) scale(0.1 -0.1)">
       <use xlink:href="#DejaVuSans-30"/>
       <use xlink:href="#DejaVuSans-2e" transform="translate(63.623047 0)"/>
       <use xlink:href="#DejaVuSans-34" transform="translate(95.410156 0)"/>
      </g>
     </g>
    </g>
    <g id="ytick_4">
     <g id="line2d_19">
      <path d="M 40.28125 181.551429 
L 377.927917 181.551429 
" clip-path="url(#p0ce4181a6c)" style="fill: none; stroke: #cccccc; stroke-opacity: 0.3; stroke-width: 0.8; stroke-linecap: round"/>
     </g>
     <g id="line2d_20"/>
     <g id="text_11">
      <!-- 0.6 -->
      <g style="fill: #262626" transform="translate(20.878125 185.350647) scale(0.1 -0.1)">
       <use xlink:href="#DejaVuSans-30"/>
       <use xlink:href="#DejaVuSans-2e" transform="translate(63.623047 0)"/>
       <use xlink:href="#DejaVuSans-36" transform="translate(95.410156 0)"/>
      </g>
     </g>
    </g>
    <g id="ytick_5">
     <g id="line2d_21">
      <path d="M 40.28125 130.088571 
L 377.927917 130.088571 
" clip-path="url(#p0ce4181a6c)" style="fill: none; stroke: #cccccc; stroke-opacity: 0.3; stroke-width: 0.8; stroke-linecap: round"/>
     </g>
     <g id="line2d_22"/>
     <g id="text_12">
      <!-- 0.8 -->
      <g style="fill: #262626" transform="translate(20.878125 133.88779) scale(0.1 -0.1)">
       <use xlink:href="#DejaVuSans-30"/>
       <use xlink:href="#DejaVuSans-2e" transform="translate(63.623047 0)"/>
       <use xlink:href="#DejaVuSans-38" transform="translate(95.410156 0)"/>
      </g>
     </g>
    </g>
    <g id="ytick_6">
     <g id="line2d_23">
      <path d="M 40.28125 78.625714 
L 377.927917 78.625714 
" clip-path="url(#p0ce4181a6c)" style="fill: none; stroke: #cccccc; stroke-opacity: 0.3; stroke-width: 0.8; stroke-linecap: round"/>
     </g>
     <g id="line2d_24"/>
     <g id="text_13">
      <!-- 1.0 -->
      <g style="fill: #262626" transform="translate(20.878125 82.424933) scale(0.1 -0.1)">
       <use xlink:href="#DejaVuSans-31"/>
       <use xlink:href="#DejaVuSans-2e" transform="translate(63.623047 0)"/>
       <use xlink:href="#DejaVuSans-30" transform="translate(95.410156 0)"/>
      </g>
     </g>
    </g>
    <g id="text_14">
     <!-- Cumulative Probability -->
     <g style="fill: #262626" transform="translate(14.798438 257.405469) rotate(-90) scale(0.1 -0.1)">
      <defs>
       <path id="DejaVuSans-43" d="M 4122 4306 
L 4122 3641 
Q 3803 3938 3442 4084 
Q 3081 4231 2675 4231 
Q 1875 4231 1450 3742 
Q 1025 3253 1025 2328 
Q 1025 1406 1450 917 
Q 1875 428 2675 428 
Q 3081 428 3442 575 
Q 3803 722 4122 1019 
L 4122 359 
Q 3791 134 3420 21 
Q 3050 -91 2638 -91 
Q 1578 -91 968 557 
Q 359 1206 359 2328 
Q 359 3453 968 4101 
Q 1578 4750 2638 4750 
Q 3056 4750 3426 4639 
Q 3797 4528 4122 4306 
z
" transform="scale(0.015625)"/>
       <path id="DejaVuSans-75" d="M 544 1381 
L 544 3500 
L 1119 3500 
L 1119 1403 
Q 1119 906 1312 657 
Q 1506 409 1894 409 
Q 2359 409 2629 706 
Q 2900 1003 2900 1516 
L 2900 3500 
L 3475 3500 
L 3475 0 
L 2900 0 
L 2900 538 
Q 2691 219 2414 64 
Q 2138 -91 1772 -91 
Q 1169 -91 856 284 
Q 544 659 544 1381 
z
M 1991 3584 
L 1991 3584 
z
" transform="scale(0.015625)"/>
       <path id="DejaVuSans-6d" d="M 3328 2828 
Q 3544 3216 3844 3400 
Q 4144 3584 4550 3584 
Q 5097 3584 5394 3201 
Q 5691 2819 5691 2113 
L 5691 0 
L 5113 0 
L 5113 2094 
Q 5113 2597 4934 2840 
Q 4756 3084 4391 3084 
Q 3944 3084 3684 2787 
Q 3425 2491 3425 1978 
L 3425 0 
L 2847 0 
L 2847 2094 
Q 2847 2600 2669 2842 
Q 2491 3084 2119 3084 
Q 1678 3084 1418 2786 
Q 1159 2488 1159 1978 
L 1159 0 
L 581 0 
L 581 3500 
L 1159 3500 
L 1159 2956 
Q 1356 3278 1631 3431 
Q 1906 3584 2284 3584 
Q 2666 3584 2933 3390 
Q 3200 3197 3328 2828 
z
" transform="scale(0.015625)"/>
       <path id="DejaVuSans-61" d="M 2194 1759 
Q 1497 1759 1228 1600 
Q 959 1441 959 1056 
Q 959 750 1161 570 
Q 1363 391 1709 391 
Q 2188 391 2477 730 
Q 2766 1069 2766 1631 
L 2766 1759 
L 2194 1759 
z
M 3341 1997 
L 3341 0 
L 2766 0 
L 2766 531 
Q 2569 213 2275 61 
Q 1981 -91 1556 -91 
Q 1019 -91 701 211 
Q 384 513 384 1019 
Q 384 1609 779 1909 
Q 1175 2209 1959 2209 
L 2766 2209 
L 2766 2266 
Q 2766 2663 2505 2880 
Q 2244 3097 1772 3097 
Q 1472 3097 1187 3025 
Q 903 2953 641 2809 
L 641 3341 
Q 956 3463 1253 3523 
Q 1550 3584 1831 3584 
Q 2591 3584 2966 3190 
Q 3341 2797 3341 1997 
z
" transform="scale(0.015625)"/>
       <path id="DejaVuSans-74" d="M 1172 4494 
L 1172 3500 
L 2356 3500 
L 2356 3053 
L 1172 3053 
L 1172 1153 
Q 1172 725 1289 603 
Q 1406 481 1766 481 
L 2356 481 
L 2356 0 
L 1766 0 
Q 1100 0 847 248 
Q 594 497 594 1153 
L 594 3053 
L 172 3053 
L 172 3500 
L 594 3500 
L 594 4494 
L 1172 4494 
z
" transform="scale(0.015625)"/>
       <path id="DejaVuSans-76" d="M 191 3500 
L 800 3500 
L 1894 563 
L 2988 3500 
L 3597 3500 
L 2284 0 
L 1503 0 
L 191 3500 
z
" transform="scale(0.015625)"/>
       <path id="DejaVuSans-65" d="M 3597 1894 
L 3597 1613 
L 953 1613 
Q 991 1019 1311 708 
Q 1631 397 2203 397 
Q 2534 397 2845 478 
Q 3156 559 3463 722 
L 3463 178 
Q 3153 47 2828 -22 
Q 2503 -91 2169 -91 
Q 1331 -91 842 396 
Q 353 884 353 1716 
Q 353 2575 817 3079 
Q 1281 3584 2069 3584 
Q 2775 3584 3186 3129 
Q 3597 2675 3597 1894 
z
M 3022 2063 
Q 3016 2534 2758 2815 
Q 2500 3097 2075 3097 
Q 1594 3097 1305 2825 
Q 1016 2553 972 2059 
L 3022 2063 
z
" transform="scale(0.015625)"/>
       <path id="DejaVuSans-20" transform="scale(0.015625)"/>
       <path id="DejaVuSans-50" d="M 1259 4147 
L 1259 2394 
L 2053 2394 
Q 2494 2394 2734 2622 
Q 2975 2850 2975 3272 
Q 2975 3691 2734 3919 
Q 2494 4147 2053 4147 
L 1259 4147 
z
M 628 4666 
L 2053 4666 
Q 2838 4666 3239 4311 
Q 3641 3956 3641 3272 
Q 3641 2581 3239 2228 
Q 2838 1875 2053 1875 
L 1259 1875 
L 1259 0 
L 628 0 
L 628 4666 
z
" transform="scale(0.015625)"/>
       <path id="DejaVuSans-72" d="M 2631 2963 
Q 2534 3019 2420 3045 
Q 2306 3072 2169 3072 
Q 1681 3072 1420 2755 
Q 1159 2438 1159 1844 
L 1159 0 
L 581 0 
L 581 3500 
L 1159 3500 
L 1159 2956 
Q 1341 3275 1631 3429 
Q 1922 3584 2338 3584 
Q 2397 3584 2469 3576 
Q 2541 3569 2628 3553 
L 2631 2963 
z
" transform="scale(0.015625)"/>
       <path id="DejaVuSans-62" d="M 3116 1747 
Q 3116 2381 2855 2742 
Q 2594 3103 2138 3103 
Q 1681 3103 1420 2742 
Q 1159 2381 1159 1747 
Q 1159 1113 1420 752 
Q 1681 391 2138 391 
Q 2594 391 2855 752 
Q 3116 1113 3116 1747 
z
M 1159 2969 
Q 1341 3281 1617 3432 
Q 1894 3584 2278 3584 
Q 2916 3584 3314 3078 
Q 3713 2572 3713 1747 
Q 3713 922 3314 415 
Q 2916 -91 2278 -91 
Q 1894 -91 1617 61 
Q 1341 213 1159 525 
L 1159 0 
L 581 0 
L 581 4863 
L 1159 4863 
L 1159 2969 
z
" transform="scale(0.015625)"/>
       <path id="DejaVuSans-79" d="M 2059 -325 
Q 1816 -950 1584 -1140 
Q 1353 -1331 966 -1331 
L 506 -1331 
L 506 -850 
L 844 -850 
Q 1081 -850 1212 -737 
Q 1344 -625 1503 -206 
L 1606 56 
L 191 3500 
L 800 3500 
L 1894 763 
L 2988 3500 
L 3597 3500 
L 2059 -325 
z
" transform="scale(0.015625)"/>
      </defs>
      <use xlink:href="#DejaVuSans-43"/>
      <use xlink:href="#DejaVuSans-75" transform="translate(69.824219 0)"/>
      <use xlink:href="#DejaVuSans-6d" transform="translate(133.203125 0)"/>
      <use xlink:href="#DejaVuSans-75" transform="translate(230.615234 0)"/>
      <use xlink:href="#DejaVuSans-6c" transform="translate(293.994141 0)"/>
      <use xlink:href="#DejaVuSans-61" transform="translate(321.777344 0)"/>
      <use xlink:href="#DejaVuSans-74" transform="translate(383.056641 0)"/>
      <use xlink:href="#DejaVuSans-69" transform="translate(422.265625 0)"/>
      <use xlink:href="#DejaVuSans-76" transform="translate(450.048828 0)"/>
      <use xlink:href="#DejaVuSans-65" transform="translate(509.228516 0)"/>
      <use xlink:href="#DejaVuSans-20" transform="translate(570.751953 0)"/>
      <use xlink:href="#DejaVuSans-50" transform="translate(602.539062 0)"/>
      <use xlink:href="#DejaVuSans-72" transform="translate(661.091797 0)"/>
      <use xlink:href="#DejaVuSans-6f" transform="translate(699.955078 0)"/>
      <use xlink:href="#DejaVuSans-62" transform="translate(761.136719 0)"/>
      <use xlink:href="#DejaVuSans-61" transform="translate(824.613281 0)"/>
      <use xlink:href="#DejaVuSans-62" transform="translate(885.892578 0)"/>
      <use xlink:href="#DejaVuSans-69" transform="translate(949.369141 0)"/>
      <use xlink:href="#DejaVuSans-6c" transform="translate(977.152344 0)"/>
      <use xlink:href="#DejaVuSans-69" transform="translate(1004.935547 0)"/>
      <use xlink:href="#DejaVuSans-74" transform="translate(1032.71875 0)"/>
      <use xlink:href="#DejaVuSans-79" transform="translate(1071.927734 0)"/>
     </g>
    </g>
   </g>
   <g id="line2d_25">
    <path d="M 40.28125 329.507143 
L 40.28125 329.507143 
L 40.28125 323.074286 
L 40.28125 323.074286 
L 40.28125 316.641429 
L 40.28125 316.641429 
L 40.28125 310.208571 
L 40.28125 310.208571 
L 40.28125 303.775714 
L 40.28125 303.775714 
L 40.28125 297.342857 
L 40.28125 297.342857 
L 40.28125 290.91 
L 40.28125 290.91 
L 40.28125 284.477143 
L 40.28125 284.477143 
L 40.28125 278.044286 
L 40.28125 278.044286 
L 40.28125 271.611429 
L 40.28125 271.611429 
L 40.28125 265.178571 
L 40.28125 265.178571 
L 40.28125 258.745714 
L 40.28125 258.745714 
L 40.28125 252.312857 
L 40.28125 252.312857 
L 40.28125 245.88 
L 40.28125 245.88 
L 40.28125 239.447143 
L 40.28125 239.447143 
L 40.28125 233.014286 
L 40.28125 233.014286 
L 40.28125 226.581429 
L 40.28125 226.581429 
L 40.28125 220.148571 
L 40.28125 220.148571 
L 40.28125 213.715714 
L 40.28125 213.715714 
L 40.28125 207.282857 
L 40.28125 207.282857 
L 40.28125 200.85 
L 40.28125 200.85 
L 40.28125 194.417143 
L 40.28125 194.417143 
L 40.28125 187.984286 
L 40.28125 187.984286 
L 40.28125 181.551429 
L 40.28125 181.551429 
L 40.28125 175.118571 
L 40.28125 175.118571 
L 40.28125 168.685714 
L 40.28125 168.685714 
L 40.28125 162.252857 
L 40.28125 162.252857 
L 40.28125 155.82 
L 40.28125 155.82 
L 40.28125 149.387143 
L 40.28125 149.387143 
L 40.28125 142.954286 
L 40.28125 142.954286 
L 40.28125 136.521429 
L 40.28125 136.521429 
L 40.28125 130.088571 
L 40.28125 130.088571 
L 40.28125 123.655714 
L 40.28125 123.655714 
L 40.28125 117.222857 
L 40.28125 117.222857 
L 40.28125 110.79 
L 40.28125 110.79 
L 40.28125 104.357143 
L 43.657717 104.357143 
L 43.657717 97.924286 
L 43.657717 97.924286 
L 43.657717 91.491429 
L 43.657717 91.491429 
L 43.657717 85.058571 
L 47.034183 85.058571 
L 47.034183 78.625714 
" clip-path="url(#p0ce4181a6c)" style="fill: none; stroke: #1f77b4; stroke-width: 2.5; stroke-linecap: round"/>
   </g>
   <g id="line2d_26">
    <path d="M 40.28125 335.682686 
L 40.28125 186.4404 
L 43.657717 186.4404 
L 43.657717 170.2296 
L 47.034183 170.2296 
L 47.034183 163.282114 
L 50.41065 163.282114 
L 50.41065 159.937029 
L 53.787117 159.937029 
L 53.787117 158.650457 
L 57.163583 158.650457 
L 57.163583 157.363886 
L 60.54005 157.363886 
L 60.54005 155.562686 
L 63.916517 155.562686 
L 63.916517 152.989543 
L 67.292983 152.989543 
L 67.292983 150.673714 
L 70.66945 150.673714 
L 70.66945 148.357886 
L 74.045917 148.357886 
L 74.045917 146.556686 
L 77.422383 146.556686 
L 77.422383 144.498171 
L 80.79885 144.498171 
L 80.79885 142.439657 
L 84.175317 142.439657 
L 84.175317 140.638457 
L 87.551783 140.638457 
L 87.551783 138.837257 
L 90.92825 138.837257 
L 90.92825 133.690971 
L 94.304717 133.690971 
L 94.304717 130.088571 
L 97.681183 130.088571 
L 97.681183 125.456914 
L 101.05765 125.456914 
L 101.05765 122.883771 
L 104.434117 122.883771 
L 104.434117 118.766743 
L 107.810583 118.766743 
L 107.810583 115.164343 
L 111.18705 115.164343 
L 111.18705 109.760743 
L 114.563517 109.760743 
L 114.563517 105.901029 
L 117.939983 105.901029 
L 117.939983 100.754743 
L 121.31645 100.754743 
L 121.31645 95.093829 
L 124.692917 95.093829 
L 124.692917 92.263371 
L 128.069383 92.263371 
L 128.069383 90.719486 
L 131.44585 90.719486 
L 131.44585 89.690229 
L 134.822317 89.690229 
L 134.822317 86.602457 
L 138.198783 86.602457 
L 138.198783 83.000057 
L 141.57525 83.000057 
L 141.57525 82.228114 
L 144.951717 82.228114 
L 144.951717 81.198857 
L 148.328183 81.198857 
L 148.328183 80.426914 
L 151.70465 80.426914 
L 151.70465 79.654971 
L 155.081117 79.654971 
L 155.081117 79.140343 
L 158.457583 79.140343 
L 158.457583 78.625714 
L 158.457583 78.625714 
" clip-path="url(#p0ce4181a6c)" style="fill: none; stroke: #000000; stroke-width: 2.5; stroke-linecap: round"/>
   </g>
   <g id="patch_3">
    <path d="M 40.28125 335.94 
L 40.28125 65.76 
" style="fill: none; stroke: #cccccc; stroke-linejoin: miter; stroke-linecap: square"/>
   </g>
   <g id="patch_4">
    <path d="M 377.927917 335.94 
L 377.927917 65.76 
" style="fill: none; stroke: #cccccc; stroke-linejoin: miter; stroke-linecap: square"/>
   </g>
   <g id="patch_5">
    <path d="M 40.28125 335.94 
L 377.927917 335.94 
" style="fill: none; stroke: #cccccc; stroke-linejoin: miter; stroke-linecap: square"/>
   </g>
   <g id="patch_6">
    <path d="M 40.28125 65.76 
L 377.927917 65.76 
" style="fill: none; stroke: #cccccc; stroke-linejoin: miter; stroke-linecap: square"/>
   </g>
   <g id="text_15">
    <!-- Abortion -->
    <g style="fill: #262626" transform="translate(179.767396 59.76) scale(0.12 -0.12)">
     <defs>
      <path id="DejaVuSans-Bold-41" d="M 3419 850 
L 1538 850 
L 1241 0 
L 31 0 
L 1759 4666 
L 3194 4666 
L 4922 0 
L 3713 0 
L 3419 850 
z
M 1838 1716 
L 3116 1716 
L 2478 3572 
L 1838 1716 
z
" transform="scale(0.015625)"/>
      <path id="DejaVuSans-Bold-62" d="M 2400 722 
Q 2759 722 2948 984 
Q 3138 1247 3138 1747 
Q 3138 2247 2948 2509 
Q 2759 2772 2400 2772 
Q 2041 2772 1848 2508 
Q 1656 2244 1656 1747 
Q 1656 1250 1848 986 
Q 2041 722 2400 722 
z
M 1656 2988 
Q 1888 3294 2169 3439 
Q 2450 3584 2816 3584 
Q 3463 3584 3878 3070 
Q 4294 2556 4294 1747 
Q 4294 938 3878 423 
Q 3463 -91 2816 -91 
Q 2450 -91 2169 54 
Q 1888 200 1656 506 
L 1656 0 
L 538 0 
L 538 4863 
L 1656 4863 
L 1656 2988 
z
" transform="scale(0.015625)"/>
      <path id="DejaVuSans-Bold-6f" d="M 2203 2784 
Q 1831 2784 1636 2517 
Q 1441 2250 1441 1747 
Q 1441 1244 1636 976 
Q 1831 709 2203 709 
Q 2569 709 2762 976 
Q 2956 1244 2956 1747 
Q 2956 2250 2762 2517 
Q 2569 2784 2203 2784 
z
M 2203 3584 
Q 3106 3584 3614 3096 
Q 4122 2609 4122 1747 
Q 4122 884 3614 396 
Q 3106 -91 2203 -91 
Q 1297 -91 786 396 
Q 275 884 275 1747 
Q 275 2609 786 3096 
Q 1297 3584 2203 3584 
z
" transform="scale(0.015625)"/>
      <path id="DejaVuSans-Bold-72" d="M 3138 2547 
Q 2991 2616 2845 2648 
Q 2700 2681 2553 2681 
Q 2122 2681 1889 2404 
Q 1656 2128 1656 1613 
L 1656 0 
L 538 0 
L 538 3500 
L 1656 3500 
L 1656 2925 
Q 1872 3269 2151 3426 
Q 2431 3584 2822 3584 
Q 2878 3584 2943 3579 
Q 3009 3575 3134 3559 
L 3138 2547 
z
" transform="scale(0.015625)"/>
      <path id="DejaVuSans-Bold-74" d="M 1759 4494 
L 1759 3500 
L 2913 3500 
L 2913 2700 
L 1759 2700 
L 1759 1216 
Q 1759 972 1856 886 
Q 1953 800 2241 800 
L 2816 800 
L 2816 0 
L 1856 0 
Q 1194 0 917 276 
Q 641 553 641 1216 
L 641 2700 
L 84 2700 
L 84 3500 
L 641 3500 
L 641 4494 
L 1759 4494 
z
" transform="scale(0.015625)"/>
      <path id="DejaVuSans-Bold-69" d="M 538 3500 
L 1656 3500 
L 1656 0 
L 538 0 
L 538 3500 
z
M 538 4863 
L 1656 4863 
L 1656 3950 
L 538 3950 
L 538 4863 
z
" transform="scale(0.015625)"/>
      <path id="DejaVuSans-Bold-6e" d="M 4056 2131 
L 4056 0 
L 2931 0 
L 2931 347 
L 2931 1631 
Q 2931 2084 2911 2256 
Q 2891 2428 2841 2509 
Q 2775 2619 2662 2680 
Q 2550 2741 2406 2741 
Q 2056 2741 1856 2470 
Q 1656 2200 1656 1722 
L 1656 0 
L 538 0 
L 538 3500 
L 1656 3500 
L 1656 2988 
Q 1909 3294 2193 3439 
Q 2478 3584 2822 3584 
Q 3428 3584 3742 3212 
Q 4056 2841 4056 2131 
z
" transform="scale(0.015625)"/>
     </defs>
     <use xlink:href="#DejaVuSans-Bold-41"/>
     <use xlink:href="#DejaVuSans-Bold-62" transform="translate(77.392578 0)"/>
     <use xlink:href="#DejaVuSans-Bold-6f" transform="translate(148.974609 0)"/>
     <use xlink:href="#DejaVuSans-Bold-72" transform="translate(217.675781 0)"/>
     <use xlink:href="#DejaVuSans-Bold-74" transform="translate(266.992188 0)"/>
     <use xlink:href="#DejaVuSans-Bold-69" transform="translate(314.794922 0)"/>
     <use xlink:href="#DejaVuSans-Bold-6f" transform="translate(349.072266 0)"/>
     <use xlink:href="#DejaVuSans-Bold-6e" transform="translate(417.773438 0)"/>
    </g>
   </g>
   <g id="legend_1">
    <g id="line2d_27">
     <path d="M 307.370729 309.607969 
L 316.370729 309.607969 
L 316.370729 309.607969 
L 325.370729 309.607969 
L 325.370729 309.607969 
" style="fill: none; stroke: #1f77b4; stroke-width: 2.5; stroke-linecap: round"/>
    </g>
    <g id="text_16">
     <!-- VBC -->
     <g style="fill: #262626" transform="translate(332.570729 312.757969) scale(0.09 -0.09)">
      <defs>
       <path id="DejaVuSans-56" d="M 1831 0 
L 50 4666 
L 709 4666 
L 2188 738 
L 3669 4666 
L 4325 4666 
L 2547 0 
L 1831 0 
z
" transform="scale(0.015625)"/>
       <path id="DejaVuSans-42" d="M 1259 2228 
L 1259 519 
L 2272 519 
Q 2781 519 3026 730 
Q 3272 941 3272 1375 
Q 3272 1813 3026 2020 
Q 2781 2228 2272 2228 
L 1259 2228 
z
M 1259 4147 
L 1259 2741 
L 2194 2741 
Q 2656 2741 2882 2914 
Q 3109 3088 3109 3444 
Q 3109 3797 2882 3972 
Q 2656 4147 2194 4147 
L 1259 4147 
z
M 628 4666 
L 2241 4666 
Q 2963 4666 3353 4366 
Q 3744 4066 3744 3513 
Q 3744 3084 3544 2831 
Q 3344 2578 2956 2516 
Q 3422 2416 3680 2098 
Q 3938 1781 3938 1306 
Q 3938 681 3513 340 
Q 3088 0 2303 0 
L 628 0 
L 628 4666 
z
" transform="scale(0.015625)"/>
      </defs>
      <use xlink:href="#DejaVuSans-56"/>
      <use xlink:href="#DejaVuSans-42" transform="translate(68.408203 0)"/>
      <use xlink:href="#DejaVuSans-43" transform="translate(135.261719 0)"/>
     </g>
    </g>
    <g id="line2d_28">
     <path d="M 307.370729 322.818281 
L 316.370729 322.818281 
L 316.370729 322.818281 
L 325.370729 322.818281 
L 325.370729 322.818281 
" style="fill: none; stroke: #000000; stroke-width: 2.5; stroke-linecap: round"/>
    </g>
    <g id="text_17">
     <!-- Random -->
     <g style="fill: #262626" transform="translate(332.570729 325.968281) scale(0.09 -0.09)">
      <defs>
       <path id="DejaVuSans-52" d="M 2841 2188 
Q 3044 2119 3236 1894 
Q 3428 1669 3622 1275 
L 4263 0 
L 3584 0 
L 2988 1197 
Q 2756 1666 2539 1819 
Q 2322 1972 1947 1972 
L 1259 1972 
L 1259 0 
L 628 0 
L 628 4666 
L 2053 4666 
Q 2853 4666 3247 4331 
Q 3641 3997 3641 3322 
Q 3641 2881 3436 2590 
Q 3231 2300 2841 2188 
z
M 1259 4147 
L 1259 2491 
L 2053 2491 
Q 2509 2491 2742 2702 
Q 2975 2913 2975 3322 
Q 2975 3731 2742 3939 
Q 2509 4147 2053 4147 
L 1259 4147 
z
" transform="scale(0.015625)"/>
       <path id="DejaVuSans-64" d="M 2906 2969 
L 2906 4863 
L 3481 4863 
L 3481 0 
L 2906 0 
L 2906 525 
Q 2725 213 2448 61 
Q 2172 -91 1784 -91 
Q 1150 -91 751 415 
Q 353 922 353 1747 
Q 353 2572 751 3078 
Q 1150 3584 1784 3584 
Q 2172 3584 2448 3432 
Q 2725 3281 2906 2969 
z
M 947 1747 
Q 947 1113 1208 752 
Q 1469 391 1925 391 
Q 2381 391 2643 752 
Q 2906 1113 2906 1747 
Q 2906 2381 2643 2742 
Q 2381 3103 1925 3103 
Q 1469 3103 1208 2742 
Q 947 2381 947 1747 
z
" transform="scale(0.015625)"/>
      </defs>
      <use xlink:href="#DejaVuSans-52"/>
      <use xlink:href="#DejaVuSans-61" transform="translate(67.232422 0)"/>
      <use xlink:href="#DejaVuSans-6e" transform="translate(128.511719 0)"/>
      <use xlink:href="#DejaVuSans-64" transform="translate(191.890625 0)"/>
      <use xlink:href="#DejaVuSans-6f" transform="translate(255.367188 0)"/>
      <use xlink:href="#DejaVuSans-6d" transform="translate(316.548828 0)"/>
     </g>
    </g>
   </g>
  </g>
  <g id="axes_2">
   <g id="patch_7">
    <path d="M 415.987917 335.94 
L 753.634583 335.94 
L 753.634583 65.76 
L 415.987917 65.76 
z
" style="fill: #ffffff"/>
   </g>
   <g id="matplotlib.axis_3">
    <g id="xtick_7">
     <g id="line2d_29">
      <path d="M 415.987917 335.94 
L 415.987917 65.76 
" clip-path="url(#p17e03f644a)" style="fill: none; stroke: #cccccc; stroke-opacity: 0.3; stroke-width: 0.8; stroke-linecap: round"/>
     </g>
     <g id="line2d_30"/>
     <g id="text_18">
      <!-- 0.0 -->
      <g style="fill: #262626" transform="translate(408.036354 347.038437) scale(0.1 -0.1)">
       <use xlink:href="#DejaVuSans-30"/>
       <use xlink:href="#DejaVuSans-2e" transform="translate(63.623047 0)"/>
       <use xlink:href="#DejaVuSans-30" transform="translate(95.410156 0)"/>
      </g>
     </g>
    </g>
    <g id="xtick_8">
     <g id="line2d_31">
      <path d="M 483.51725 335.94 
L 483.51725 65.76 
" clip-path="url(#p17e03f644a)" style="fill: none; stroke: #cccccc; stroke-opacity: 0.3; stroke-width: 0.8; stroke-linecap: round"/>
     </g>
     <g id="line2d_32"/>
     <g id="text_19">
      <!-- 0.2 -->
      <g style="fill: #262626" transform="translate(475.565688 347.038437) scale(0.1 -0.1)">
       <use xlink:href="#DejaVuSans-30"/>
       <use xlink:href="#DejaVuSans-2e" transform="translate(63.623047 0)"/>
       <use xlink:href="#DejaVuSans-32" transform="translate(95.410156 0)"/>
      </g>
     </g>
    </g>
    <g id="xtick_9">
     <g id="line2d_33">
      <path d="M 551.046583 335.94 
L 551.046583 65.76 
" clip-path="url(#p17e03f644a)" style="fill: none; stroke: #cccccc; stroke-opacity: 0.3; stroke-width: 0.8; stroke-linecap: round"/>
     </g>
     <g id="line2d_34"/>
     <g id="text_20">
      <!-- 0.4 -->
      <g style="fill: #262626" transform="translate(543.095021 347.038437) scale(0.1 -0.1)">
       <use xlink:href="#DejaVuSans-30"/>
       <use xlink:href="#DejaVuSans-2e" transform="translate(63.623047 0)"/>
       <use xlink:href="#DejaVuSans-34" transform="translate(95.410156 0)"/>
      </g>
     </g>
    </g>
    <g id="xtick_10">
     <g id="line2d_35">
      <path d="M 618.575917 335.94 
L 618.575917 65.76 
" clip-path="url(#p17e03f644a)" style="fill: none; stroke: #cccccc; stroke-opacity: 0.3; stroke-width: 0.8; stroke-linecap: round"/>
     </g>
     <g id="line2d_36"/>
     <g id="text_21">
      <!-- 0.6 -->
      <g style="fill: #262626" transform="translate(610.624354 347.038437) scale(0.1 -0.1)">
       <use xlink:href="#DejaVuSans-30"/>
       <use xlink:href="#DejaVuSans-2e" transform="translate(63.623047 0)"/>
       <use xlink:href="#DejaVuSans-36" transform="translate(95.410156 0)"/>
      </g>
     </g>
    </g>
    <g id="xtick_11">
     <g id="line2d_37">
      <path d="M 686.10525 335.94 
L 686.10525 65.76 
" clip-path="url(#p17e03f644a)" style="fill: none; stroke: #cccccc; stroke-opacity: 0.3; stroke-width: 0.8; stroke-linecap: round"/>
     </g>
     <g id="line2d_38"/>
     <g id="text_22">
      <!-- 0.8 -->
      <g style="fill: #262626" transform="translate(678.153688 347.038437) scale(0.1 -0.1)">
       <use xlink:href="#DejaVuSans-30"/>
       <use xlink:href="#DejaVuSans-2e" transform="translate(63.623047 0)"/>
       <use xlink:href="#DejaVuSans-38" transform="translate(95.410156 0)"/>
      </g>
     </g>
    </g>
    <g id="xtick_12">
     <g id="line2d_39">
      <path d="M 753.634583 335.94 
L 753.634583 65.76 
" clip-path="url(#p17e03f644a)" style="fill: none; stroke: #cccccc; stroke-opacity: 0.3; stroke-width: 0.8; stroke-linecap: round"/>
     </g>
     <g id="line2d_40"/>
     <g id="text_23">
      <!-- 1.0 -->
      <g style="fill: #262626" transform="translate(745.683021 347.038437) scale(0.1 -0.1)">
       <use xlink:href="#DejaVuSans-31"/>
       <use xlink:href="#DejaVuSans-2e" transform="translate(63.623047 0)"/>
       <use xlink:href="#DejaVuSans-30" transform="translate(95.410156 0)"/>
      </g>
     </g>
    </g>
    <g id="text_24">
     <!-- Epsilon -->
     <g style="fill: #262626" transform="translate(566.866719 360.716562) scale(0.1 -0.1)">
      <use xlink:href="#DejaVuSans-45"/>
      <use xlink:href="#DejaVuSans-70" transform="translate(63.183594 0)"/>
      <use xlink:href="#DejaVuSans-73" transform="translate(126.660156 0)"/>
      <use xlink:href="#DejaVuSans-69" transform="translate(178.759766 0)"/>
      <use xlink:href="#DejaVuSans-6c" transform="translate(206.542969 0)"/>
      <use xlink:href="#DejaVuSans-6f" transform="translate(234.326172 0)"/>
      <use xlink:href="#DejaVuSans-6e" transform="translate(295.507812 0)"/>
     </g>
    </g>
   </g>
   <g id="matplotlib.axis_4">
    <g id="ytick_7">
     <g id="line2d_41">
      <path d="M 415.987917 335.94 
L 753.634583 335.94 
" clip-path="url(#p17e03f644a)" style="fill: none; stroke: #cccccc; stroke-opacity: 0.3; stroke-width: 0.8; stroke-linecap: round"/>
     </g>
     <g id="line2d_42"/>
     <g id="text_25">
      <!-- 0.0 -->
      <g style="fill: #262626" transform="translate(396.584792 339.739219) scale(0.1 -0.1)">
       <use xlink:href="#DejaVuSans-30"/>
       <use xlink:href="#DejaVuSans-2e" transform="translate(63.623047 0)"/>
       <use xlink:href="#DejaVuSans-30" transform="translate(95.410156 0)"/>
      </g>
     </g>
    </g>
    <g id="ytick_8">
     <g id="line2d_43">
      <path d="M 415.987917 284.477143 
L 753.634583 284.477143 
" clip-path="url(#p17e03f644a)" style="fill: none; stroke: #cccccc; stroke-opacity: 0.3; stroke-width: 0.8; stroke-linecap: round"/>
     </g>
     <g id="line2d_44"/>
     <g id="text_26">
      <!-- 0.2 -->
      <g style="fill: #262626" transform="translate(396.584792 288.276362) scale(0.1 -0.1)">
       <use xlink:href="#DejaVuSans-30"/>
       <use xlink:href="#DejaVuSans-2e" transform="translate(63.623047 0)"/>
       <use xlink:href="#DejaVuSans-32" transform="translate(95.410156 0)"/>
      </g>
     </g>
    </g>
    <g id="ytick_9">
     <g id="line2d_45">
      <path d="M 415.987917 233.014286 
L 753.634583 233.014286 
" clip-path="url(#p17e03f644a)" style="fill: none; stroke: #cccccc; stroke-opacity: 0.3; stroke-width: 0.8; stroke-linecap: round"/>
     </g>
     <g id="line2d_46"/>
     <g id="text_27">
      <!-- 0.4 -->
      <g style="fill: #262626" transform="translate(396.584792 236.813504) scale(0.1 -0.1)">
       <use xlink:href="#DejaVuSans-30"/>
       <use xlink:href="#DejaVuSans-2e" transform="translate(63.623047 0)"/>
       <use xlink:href="#DejaVuSans-34" transform="translate(95.410156 0)"/>
      </g>
     </g>
    </g>
    <g id="ytick_10">
     <g id="line2d_47">
      <path d="M 415.987917 181.551429 
L 753.634583 181.551429 
" clip-path="url(#p17e03f644a)" style="fill: none; stroke: #cccccc; stroke-opacity: 0.3; stroke-width: 0.8; stroke-linecap: round"/>
     </g>
     <g id="line2d_48"/>
     <g id="text_28">
      <!-- 0.6 -->
      <g style="fill: #262626" transform="translate(396.584792 185.350647) scale(0.1 -0.1)">
       <use xlink:href="#DejaVuSans-30"/>
       <use xlink:href="#DejaVuSans-2e" transform="translate(63.623047 0)"/>
       <use xlink:href="#DejaVuSans-36" transform="translate(95.410156 0)"/>
      </g>
     </g>
    </g>
    <g id="ytick_11">
     <g id="line2d_49">
      <path d="M 415.987917 130.088571 
L 753.634583 130.088571 
" clip-path="url(#p17e03f644a)" style="fill: none; stroke: #cccccc; stroke-opacity: 0.3; stroke-width: 0.8; stroke-linecap: round"/>
     </g>
     <g id="line2d_50"/>
     <g id="text_29">
      <!-- 0.8 -->
      <g style="fill: #262626" transform="translate(396.584792 133.88779) scale(0.1 -0.1)">
       <use xlink:href="#DejaVuSans-30"/>
       <use xlink:href="#DejaVuSans-2e" transform="translate(63.623047 0)"/>
       <use xlink:href="#DejaVuSans-38" transform="translate(95.410156 0)"/>
      </g>
     </g>
    </g>
    <g id="ytick_12">
     <g id="line2d_51">
      <path d="M 415.987917 78.625714 
L 753.634583 78.625714 
" clip-path="url(#p17e03f644a)" style="fill: none; stroke: #cccccc; stroke-opacity: 0.3; stroke-width: 0.8; stroke-linecap: round"/>
     </g>
     <g id="line2d_52"/>
     <g id="text_30">
      <!-- 1.0 -->
      <g style="fill: #262626" transform="translate(396.584792 82.424933) scale(0.1 -0.1)">
       <use xlink:href="#DejaVuSans-31"/>
       <use xlink:href="#DejaVuSans-2e" transform="translate(63.623047 0)"/>
       <use xlink:href="#DejaVuSans-30" transform="translate(95.410156 0)"/>
      </g>
     </g>
    </g>
   </g>
   <g id="line2d_53">
    <path d="M 415.987917 329.507143 
L 415.987917 329.507143 
L 415.987917 323.074286 
L 415.987917 323.074286 
L 415.987917 316.641429 
L 415.987917 316.641429 
L 415.987917 310.208571 
L 415.987917 310.208571 
L 415.987917 303.775714 
L 415.987917 303.775714 
L 415.987917 297.342857 
L 415.987917 297.342857 
L 415.987917 290.91 
L 415.987917 290.91 
L 415.987917 284.477143 
L 415.987917 284.477143 
L 415.987917 278.044286 
L 415.987917 278.044286 
L 415.987917 271.611429 
L 415.987917 271.611429 
L 415.987917 265.178571 
L 415.987917 265.178571 
L 415.987917 258.745714 
L 415.987917 258.745714 
L 415.987917 252.312857 
L 415.987917 252.312857 
L 415.987917 245.88 
L 415.987917 245.88 
L 415.987917 239.447143 
L 415.987917 239.447143 
L 415.987917 233.014286 
L 415.987917 233.014286 
L 415.987917 226.581429 
L 415.987917 226.581429 
L 415.987917 220.148571 
L 415.987917 220.148571 
L 415.987917 213.715714 
L 415.987917 213.715714 
L 415.987917 207.282857 
L 415.987917 207.282857 
L 415.987917 200.85 
L 415.987917 200.85 
L 415.987917 194.417143 
L 415.987917 194.417143 
L 415.987917 187.984286 
L 415.987917 187.984286 
L 415.987917 181.551429 
L 415.987917 181.551429 
L 415.987917 175.118571 
L 415.987917 175.118571 
L 415.987917 168.685714 
L 415.987917 168.685714 
L 415.987917 162.252857 
L 415.987917 162.252857 
L 415.987917 155.82 
L 415.987917 155.82 
L 415.987917 149.387143 
L 415.987917 149.387143 
L 415.987917 142.954286 
L 415.987917 142.954286 
L 415.987917 136.521429 
L 415.987917 136.521429 
L 415.987917 130.088571 
L 415.987917 130.088571 
L 415.987917 123.655714 
L 415.987917 123.655714 
L 415.987917 117.222857 
L 415.987917 117.222857 
L 415.987917 110.79 
L 415.987917 110.79 
L 415.987917 104.357143 
L 415.987917 104.357143 
L 415.987917 97.924286 
L 415.987917 97.924286 
L 415.987917 91.491429 
L 415.987917 91.491429 
L 415.987917 85.058571 
L 419.364383 85.058571 
L 419.364383 78.625714 
" clip-path="url(#p17e03f644a)" style="fill: none; stroke: #1f77b4; stroke-width: 2.5; stroke-linecap: round"/>
   </g>
   <g id="line2d_54">
    <path d="M 415.987917 335.682686 
L 415.987917 152.2176 
L 419.364383 152.2176 
L 419.364383 124.427657 
L 422.74085 124.427657 
L 422.74085 109.503429 
L 426.117317 109.503429 
L 426.117317 102.298629 
L 429.493783 102.298629 
L 429.493783 97.666971 
L 432.87025 97.666971 
L 432.87025 91.748743 
L 436.246717 91.748743 
L 436.246717 88.918286 
L 439.623183 88.918286 
L 439.623183 87.3744 
L 442.99965 87.3744 
L 442.99965 86.345143 
L 446.376117 86.345143 
L 446.376117 86.087829 
L 449.752583 86.087829 
L 449.752583 85.315886 
L 453.12905 85.315886 
L 453.12905 84.029314 
L 456.505517 84.029314 
L 456.505517 83.257371 
L 459.881983 83.257371 
L 459.881983 83.000057 
L 463.25845 83.000057 
L 463.25845 82.228114 
L 466.634917 82.228114 
L 466.634917 81.713486 
L 470.011383 81.713486 
L 470.011383 81.456171 
L 473.38785 81.456171 
L 473.38785 80.684229 
L 476.764317 80.684229 
L 476.764317 80.1696 
L 480.140783 80.1696 
L 480.140783 79.654971 
L 483.51725 79.654971 
L 483.51725 79.397657 
L 493.64665 79.397657 
L 493.64665 78.883029 
L 497.023117 78.883029 
L 497.023117 78.625714 
L 497.023117 78.625714 
" clip-path="url(#p17e03f644a)" style="fill: none; stroke: #000000; stroke-width: 2.5; stroke-linecap: round"/>
   </g>
   <g id="patch_8">
    <path d="M 415.987917 335.94 
L 415.987917 65.76 
" style="fill: none; stroke: #cccccc; stroke-linejoin: miter; stroke-linecap: square"/>
   </g>
   <g id="patch_9">
    <path d="M 753.634583 335.94 
L 753.634583 65.76 
" style="fill: none; stroke: #cccccc; stroke-linejoin: miter; stroke-linecap: square"/>
   </g>
   <g id="patch_10">
    <path d="M 415.987917 335.94 
L 753.634583 335.94 
" style="fill: none; stroke: #cccccc; stroke-linejoin: miter; stroke-linecap: square"/>
   </g>
   <g id="patch_11">
    <path d="M 415.987917 65.76 
L 753.634583 65.76 
" style="fill: none; stroke: #cccccc; stroke-linejoin: miter; stroke-linecap: square"/>
   </g>
   <g id="text_31">
    <!-- Electoral College -->
    <g style="fill: #262626" transform="translate(527.812188 59.76) scale(0.12 -0.12)">
     <defs>
      <path id="DejaVuSans-Bold-45" d="M 588 4666 
L 3834 4666 
L 3834 3756 
L 1791 3756 
L 1791 2888 
L 3713 2888 
L 3713 1978 
L 1791 1978 
L 1791 909 
L 3903 909 
L 3903 0 
L 588 0 
L 588 4666 
z
" transform="scale(0.015625)"/>
      <path id="DejaVuSans-Bold-6c" d="M 538 4863 
L 1656 4863 
L 1656 0 
L 538 0 
L 538 4863 
z
" transform="scale(0.015625)"/>
      <path id="DejaVuSans-Bold-65" d="M 4031 1759 
L 4031 1441 
L 1416 1441 
Q 1456 1047 1700 850 
Q 1944 653 2381 653 
Q 2734 653 3104 758 
Q 3475 863 3866 1075 
L 3866 213 
Q 3469 63 3072 -14 
Q 2675 -91 2278 -91 
Q 1328 -91 801 392 
Q 275 875 275 1747 
Q 275 2603 792 3093 
Q 1309 3584 2216 3584 
Q 3041 3584 3536 3087 
Q 4031 2591 4031 1759 
z
M 2881 2131 
Q 2881 2450 2695 2645 
Q 2509 2841 2209 2841 
Q 1884 2841 1681 2658 
Q 1478 2475 1428 2131 
L 2881 2131 
z
" transform="scale(0.015625)"/>
      <path id="DejaVuSans-Bold-63" d="M 3366 3391 
L 3366 2478 
Q 3138 2634 2908 2709 
Q 2678 2784 2431 2784 
Q 1963 2784 1702 2511 
Q 1441 2238 1441 1747 
Q 1441 1256 1702 982 
Q 1963 709 2431 709 
Q 2694 709 2930 787 
Q 3166 866 3366 1019 
L 3366 103 
Q 3103 6 2833 -42 
Q 2563 -91 2291 -91 
Q 1344 -91 809 395 
Q 275 881 275 1747 
Q 275 2613 809 3098 
Q 1344 3584 2291 3584 
Q 2566 3584 2833 3536 
Q 3100 3488 3366 3391 
z
" transform="scale(0.015625)"/>
      <path id="DejaVuSans-Bold-61" d="M 2106 1575 
Q 1756 1575 1579 1456 
Q 1403 1338 1403 1106 
Q 1403 894 1545 773 
Q 1688 653 1941 653 
Q 2256 653 2472 879 
Q 2688 1106 2688 1447 
L 2688 1575 
L 2106 1575 
z
M 3816 1997 
L 3816 0 
L 2688 0 
L 2688 519 
Q 2463 200 2181 54 
Q 1900 -91 1497 -91 
Q 953 -91 614 226 
Q 275 544 275 1050 
Q 275 1666 698 1953 
Q 1122 2241 2028 2241 
L 2688 2241 
L 2688 2328 
Q 2688 2594 2478 2717 
Q 2269 2841 1825 2841 
Q 1466 2841 1156 2769 
Q 847 2697 581 2553 
L 581 3406 
Q 941 3494 1303 3539 
Q 1666 3584 2028 3584 
Q 2975 3584 3395 3211 
Q 3816 2838 3816 1997 
z
" transform="scale(0.015625)"/>
      <path id="DejaVuSans-Bold-20" transform="scale(0.015625)"/>
      <path id="DejaVuSans-Bold-43" d="M 4288 256 
Q 3956 84 3597 -3 
Q 3238 -91 2847 -91 
Q 1681 -91 1000 561 
Q 319 1213 319 2328 
Q 319 3447 1000 4098 
Q 1681 4750 2847 4750 
Q 3238 4750 3597 4662 
Q 3956 4575 4288 4403 
L 4288 3438 
Q 3953 3666 3628 3772 
Q 3303 3878 2944 3878 
Q 2300 3878 1931 3465 
Q 1563 3053 1563 2328 
Q 1563 1606 1931 1193 
Q 2300 781 2944 781 
Q 3303 781 3628 887 
Q 3953 994 4288 1222 
L 4288 256 
z
" transform="scale(0.015625)"/>
      <path id="DejaVuSans-Bold-67" d="M 2919 594 
Q 2688 288 2409 144 
Q 2131 0 1766 0 
Q 1125 0 706 504 
Q 288 1009 288 1791 
Q 288 2575 706 3076 
Q 1125 3578 1766 3578 
Q 2131 3578 2409 3434 
Q 2688 3291 2919 2981 
L 2919 3500 
L 4044 3500 
L 4044 353 
Q 4044 -491 3511 -936 
Q 2978 -1381 1966 -1381 
Q 1638 -1381 1331 -1331 
Q 1025 -1281 716 -1178 
L 716 -306 
Q 1009 -475 1290 -558 
Q 1572 -641 1856 -641 
Q 2406 -641 2662 -400 
Q 2919 -159 2919 353 
L 2919 594 
z
M 2181 2772 
Q 1834 2772 1640 2515 
Q 1447 2259 1447 1791 
Q 1447 1309 1634 1061 
Q 1822 813 2181 813 
Q 2531 813 2725 1069 
Q 2919 1325 2919 1791 
Q 2919 2259 2725 2515 
Q 2531 2772 2181 2772 
z
" transform="scale(0.015625)"/>
     </defs>
     <use xlink:href="#DejaVuSans-Bold-45"/>
     <use xlink:href="#DejaVuSans-Bold-6c" transform="translate(68.310547 0)"/>
     <use xlink:href="#DejaVuSans-Bold-65" transform="translate(102.587891 0)"/>
     <use xlink:href="#DejaVuSans-Bold-63" transform="translate(170.410156 0)"/>
     <use xlink:href="#DejaVuSans-Bold-74" transform="translate(229.6875 0)"/>
     <use xlink:href="#DejaVuSans-Bold-6f" transform="translate(277.490234 0)"/>
     <use xlink:href="#DejaVuSans-Bold-72" transform="translate(346.191406 0)"/>
     <use xlink:href="#DejaVuSans-Bold-61" transform="translate(395.507812 0)"/>
     <use xlink:href="#DejaVuSans-Bold-6c" transform="translate(462.988281 0)"/>
     <use xlink:href="#DejaVuSans-Bold-20" transform="translate(497.265625 0)"/>
     <use xlink:href="#DejaVuSans-Bold-43" transform="translate(532.080078 0)"/>
     <use xlink:href="#DejaVuSans-Bold-6f" transform="translate(605.46875 0)"/>
     <use xlink:href="#DejaVuSans-Bold-6c" transform="translate(674.169922 0)"/>
     <use xlink:href="#DejaVuSans-Bold-6c" transform="translate(708.447266 0)"/>
     <use xlink:href="#DejaVuSans-Bold-65" transform="translate(742.724609 0)"/>
     <use xlink:href="#DejaVuSans-Bold-67" transform="translate(810.546875 0)"/>
     <use xlink:href="#DejaVuSans-Bold-65" transform="translate(882.128906 0)"/>
    </g>
   </g>
   <g id="legend_2">
    <g id="line2d_55">
     <path d="M 683.077396 309.607969 
L 692.077396 309.607969 
L 692.077396 309.607969 
L 701.077396 309.607969 
L 701.077396 309.607969 
" style="fill: none; stroke: #1f77b4; stroke-width: 2.5; stroke-linecap: round"/>
    </g>
    <g id="text_32">
     <!-- VBC -->
     <g style="fill: #262626" transform="translate(708.277396 312.757969) scale(0.09 -0.09)">
      <use xlink:href="#DejaVuSans-56"/>
      <use xlink:href="#DejaVuSans-42" transform="translate(68.408203 0)"/>
      <use xlink:href="#DejaVuSans-43" transform="translate(135.261719 0)"/>
     </g>
    </g>
    <g id="line2d_56">
     <path d="M 683.077396 322.818281 
L 692.077396 322.818281 
L 692.077396 322.818281 
L 701.077396 322.818281 
L 701.077396 322.818281 
" style="fill: none; stroke: #000000; stroke-width: 2.5; stroke-linecap: round"/>
    </g>
    <g id="text_33">
     <!-- Random -->
     <g style="fill: #262626" transform="translate(708.277396 325.968281) scale(0.09 -0.09)">
      <use xlink:href="#DejaVuSans-52"/>
      <use xlink:href="#DejaVuSans-61" transform="translate(67.232422 0)"/>
      <use xlink:href="#DejaVuSans-6e" transform="translate(128.511719 0)"/>
      <use xlink:href="#DejaVuSans-64" transform="translate(191.890625 0)"/>
      <use xlink:href="#DejaVuSans-6f" transform="translate(255.367188 0)"/>
      <use xlink:href="#DejaVuSans-6d" transform="translate(316.548828 0)"/>
     </g>
    </g>
   </g>
  </g>
  <g id="axes_3">
   <g id="patch_12">
    <path d="M 791.694583 335.94 
L 1129.34125 335.94 
L 1129.34125 65.76 
L 791.694583 65.76 
z
" style="fill: #ffffff"/>
   </g>
   <g id="matplotlib.axis_5">
    <g id="xtick_13">
     <g id="line2d_57">
      <path d="M 791.694583 335.94 
L 791.694583 65.76 
" clip-path="url(#p240c1d4ff0)" style="fill: none; stroke: #cccccc; stroke-opacity: 0.3; stroke-width: 0.8; stroke-linecap: round"/>
     </g>
     <g id="line2d_58"/>
     <g id="text_34">
      <!-- 0.0 -->
      <g style="fill: #262626" transform="translate(783.743021 347.038437) scale(0.1 -0.1)">
       <use xlink:href="#DejaVuSans-30"/>
       <use xlink:href="#DejaVuSans-2e" transform="translate(63.623047 0)"/>
       <use xlink:href="#DejaVuSans-30" transform="translate(95.410156 0)"/>
      </g>
     </g>
    </g>
    <g id="xtick_14">
     <g id="line2d_59">
      <path d="M 859.223917 335.94 
L 859.223917 65.76 
" clip-path="url(#p240c1d4ff0)" style="fill: none; stroke: #cccccc; stroke-opacity: 0.3; stroke-width: 0.8; stroke-linecap: round"/>
     </g>
     <g id="line2d_60"/>
     <g id="text_35">
      <!-- 0.2 -->
      <g style="fill: #262626" transform="translate(851.272354 347.038437) scale(0.1 -0.1)">
       <use xlink:href="#DejaVuSans-30"/>
       <use xlink:href="#DejaVuSans-2e" transform="translate(63.623047 0)"/>
       <use xlink:href="#DejaVuSans-32" transform="translate(95.410156 0)"/>
      </g>
     </g>
    </g>
    <g id="xtick_15">
     <g id="line2d_61">
      <path d="M 926.75325 335.94 
L 926.75325 65.76 
" clip-path="url(#p240c1d4ff0)" style="fill: none; stroke: #cccccc; stroke-opacity: 0.3; stroke-width: 0.8; stroke-linecap: round"/>
     </g>
     <g id="line2d_62"/>
     <g id="text_36">
      <!-- 0.4 -->
      <g style="fill: #262626" transform="translate(918.801688 347.038437) scale(0.1 -0.1)">
       <use xlink:href="#DejaVuSans-30"/>
       <use xlink:href="#DejaVuSans-2e" transform="translate(63.623047 0)"/>
       <use xlink:href="#DejaVuSans-34" transform="translate(95.410156 0)"/>
      </g>
     </g>
    </g>
    <g id="xtick_16">
     <g id="line2d_63">
      <path d="M 994.282583 335.94 
L 994.282583 65.76 
" clip-path="url(#p240c1d4ff0)" style="fill: none; stroke: #cccccc; stroke-opacity: 0.3; stroke-width: 0.8; stroke-linecap: round"/>
     </g>
     <g id="line2d_64"/>
     <g id="text_37">
      <!-- 0.6 -->
      <g style="fill: #262626" transform="translate(986.331021 347.038437) scale(0.1 -0.1)">
       <use xlink:href="#DejaVuSans-30"/>
       <use xlink:href="#DejaVuSans-2e" transform="translate(63.623047 0)"/>
       <use xlink:href="#DejaVuSans-36" transform="translate(95.410156 0)"/>
      </g>
     </g>
    </g>
    <g id="xtick_17">
     <g id="line2d_65">
      <path d="M 1061.811917 335.94 
L 1061.811917 65.76 
" clip-path="url(#p240c1d4ff0)" style="fill: none; stroke: #cccccc; stroke-opacity: 0.3; stroke-width: 0.8; stroke-linecap: round"/>
     </g>
     <g id="line2d_66"/>
     <g id="text_38">
      <!-- 0.8 -->
      <g style="fill: #262626" transform="translate(1053.860354 347.038437) scale(0.1 -0.1)">
       <use xlink:href="#DejaVuSans-30"/>
       <use xlink:href="#DejaVuSans-2e" transform="translate(63.623047 0)"/>
       <use xlink:href="#DejaVuSans-38" transform="translate(95.410156 0)"/>
      </g>
     </g>
    </g>
    <g id="xtick_18">
     <g id="line2d_67">
      <path d="M 1129.34125 335.94 
L 1129.34125 65.76 
" clip-path="url(#p240c1d4ff0)" style="fill: none; stroke: #cccccc; stroke-opacity: 0.3; stroke-width: 0.8; stroke-linecap: round"/>
     </g>
     <g id="line2d_68"/>
     <g id="text_39">
      <!-- 1.0 -->
      <g style="fill: #262626" transform="translate(1121.389688 347.038437) scale(0.1 -0.1)">
       <use xlink:href="#DejaVuSans-31"/>
       <use xlink:href="#DejaVuSans-2e" transform="translate(63.623047 0)"/>
       <use xlink:href="#DejaVuSans-30" transform="translate(95.410156 0)"/>
      </g>
     </g>
    </g>
    <g id="text_40">
     <!-- Epsilon -->
     <g style="fill: #262626" transform="translate(942.573385 360.716562) scale(0.1 -0.1)">
      <use xlink:href="#DejaVuSans-45"/>
      <use xlink:href="#DejaVuSans-70" transform="translate(63.183594 0)"/>
      <use xlink:href="#DejaVuSans-73" transform="translate(126.660156 0)"/>
      <use xlink:href="#DejaVuSans-69" transform="translate(178.759766 0)"/>
      <use xlink:href="#DejaVuSans-6c" transform="translate(206.542969 0)"/>
      <use xlink:href="#DejaVuSans-6f" transform="translate(234.326172 0)"/>
      <use xlink:href="#DejaVuSans-6e" transform="translate(295.507812 0)"/>
     </g>
    </g>
   </g>
   <g id="matplotlib.axis_6">
    <g id="ytick_13">
     <g id="line2d_69">
      <path d="M 791.694583 335.94 
L 1129.34125 335.94 
" clip-path="url(#p240c1d4ff0)" style="fill: none; stroke: #cccccc; stroke-opacity: 0.3; stroke-width: 0.8; stroke-linecap: round"/>
     </g>
     <g id="line2d_70"/>
     <g id="text_41">
      <!-- 0.0 -->
      <g style="fill: #262626" transform="translate(772.291458 339.739219) scale(0.1 -0.1)">
       <use xlink:href="#DejaVuSans-30"/>
       <use xlink:href="#DejaVuSans-2e" transform="translate(63.623047 0)"/>
       <use xlink:href="#DejaVuSans-30" transform="translate(95.410156 0)"/>
      </g>
     </g>
    </g>
    <g id="ytick_14">
     <g id="line2d_71">
      <path d="M 791.694583 284.477143 
L 1129.34125 284.477143 
" clip-path="url(#p240c1d4ff0)" style="fill: none; stroke: #cccccc; stroke-opacity: 0.3; stroke-width: 0.8; stroke-linecap: round"/>
     </g>
     <g id="line2d_72"/>
     <g id="text_42">
      <!-- 0.2 -->
      <g style="fill: #262626" transform="translate(772.291458 288.276362) scale(0.1 -0.1)">
       <use xlink:href="#DejaVuSans-30"/>
       <use xlink:href="#DejaVuSans-2e" transform="translate(63.623047 0)"/>
       <use xlink:href="#DejaVuSans-32" transform="translate(95.410156 0)"/>
      </g>
     </g>
    </g>
    <g id="ytick_15">
     <g id="line2d_73">
      <path d="M 791.694583 233.014286 
L 1129.34125 233.014286 
" clip-path="url(#p240c1d4ff0)" style="fill: none; stroke: #cccccc; stroke-opacity: 0.3; stroke-width: 0.8; stroke-linecap: round"/>
     </g>
     <g id="line2d_74"/>
     <g id="text_43">
      <!-- 0.4 -->
      <g style="fill: #262626" transform="translate(772.291458 236.813504) scale(0.1 -0.1)">
       <use xlink:href="#DejaVuSans-30"/>
       <use xlink:href="#DejaVuSans-2e" transform="translate(63.623047 0)"/>
       <use xlink:href="#DejaVuSans-34" transform="translate(95.410156 0)"/>
      </g>
     </g>
    </g>
    <g id="ytick_16">
     <g id="line2d_75">
      <path d="M 791.694583 181.551429 
L 1129.34125 181.551429 
" clip-path="url(#p240c1d4ff0)" style="fill: none; stroke: #cccccc; stroke-opacity: 0.3; stroke-width: 0.8; stroke-linecap: round"/>
     </g>
     <g id="line2d_76"/>
     <g id="text_44">
      <!-- 0.6 -->
      <g style="fill: #262626" transform="translate(772.291458 185.350647) scale(0.1 -0.1)">
       <use xlink:href="#DejaVuSans-30"/>
       <use xlink:href="#DejaVuSans-2e" transform="translate(63.623047 0)"/>
       <use xlink:href="#DejaVuSans-36" transform="translate(95.410156 0)"/>
      </g>
     </g>
    </g>
    <g id="ytick_17">
     <g id="line2d_77">
      <path d="M 791.694583 130.088571 
L 1129.34125 130.088571 
" clip-path="url(#p240c1d4ff0)" style="fill: none; stroke: #cccccc; stroke-opacity: 0.3; stroke-width: 0.8; stroke-linecap: round"/>
     </g>
     <g id="line2d_78"/>
     <g id="text_45">
      <!-- 0.8 -->
      <g style="fill: #262626" transform="translate(772.291458 133.88779) scale(0.1 -0.1)">
       <use xlink:href="#DejaVuSans-30"/>
       <use xlink:href="#DejaVuSans-2e" transform="translate(63.623047 0)"/>
       <use xlink:href="#DejaVuSans-38" transform="translate(95.410156 0)"/>
      </g>
     </g>
    </g>
    <g id="ytick_18">
     <g id="line2d_79">
      <path d="M 791.694583 78.625714 
L 1129.34125 78.625714 
" clip-path="url(#p240c1d4ff0)" style="fill: none; stroke: #cccccc; stroke-opacity: 0.3; stroke-width: 0.8; stroke-linecap: round"/>
     </g>
     <g id="line2d_80"/>
     <g id="text_46">
      <!-- 1.0 -->
      <g style="fill: #262626" transform="translate(772.291458 82.424933) scale(0.1 -0.1)">
       <use xlink:href="#DejaVuSans-31"/>
       <use xlink:href="#DejaVuSans-2e" transform="translate(63.623047 0)"/>
       <use xlink:href="#DejaVuSans-30" transform="translate(95.410156 0)"/>
      </g>
     </g>
    </g>
   </g>
   <g id="line2d_81">
    <path d="M 791.694583 329.507143 
L 791.694583 329.507143 
L 791.694583 323.074286 
L 791.694583 323.074286 
L 791.694583 316.641429 
L 791.694583 316.641429 
L 791.694583 310.208571 
L 791.694583 310.208571 
L 791.694583 303.775714 
L 791.694583 303.775714 
L 791.694583 297.342857 
L 791.694583 297.342857 
L 791.694583 290.91 
L 791.694583 290.91 
L 791.694583 284.477143 
L 791.694583 284.477143 
L 791.694583 278.044286 
L 791.694583 278.044286 
L 791.694583 271.611429 
L 791.694583 271.611429 
L 791.694583 265.178571 
L 791.694583 265.178571 
L 791.694583 258.745714 
L 791.694583 258.745714 
L 791.694583 252.312857 
L 791.694583 252.312857 
L 791.694583 245.88 
L 791.694583 245.88 
L 791.694583 239.447143 
L 791.694583 239.447143 
L 791.694583 233.014286 
L 791.694583 233.014286 
L 791.694583 226.581429 
L 791.694583 226.581429 
L 791.694583 220.148571 
L 791.694583 220.148571 
L 791.694583 213.715714 
L 791.694583 213.715714 
L 791.694583 207.282857 
L 791.694583 207.282857 
L 791.694583 200.85 
L 791.694583 200.85 
L 791.694583 194.417143 
L 791.694583 194.417143 
L 791.694583 187.984286 
L 791.694583 187.984286 
L 791.694583 181.551429 
L 791.694583 181.551429 
L 791.694583 175.118571 
L 791.694583 175.118571 
L 791.694583 168.685714 
L 791.694583 168.685714 
L 791.694583 162.252857 
L 791.694583 162.252857 
L 791.694583 155.82 
L 791.694583 155.82 
L 791.694583 149.387143 
L 791.694583 149.387143 
L 791.694583 142.954286 
L 791.694583 142.954286 
L 791.694583 136.521429 
L 791.694583 136.521429 
L 791.694583 130.088571 
L 791.694583 130.088571 
L 791.694583 123.655714 
L 791.694583 123.655714 
L 791.694583 117.222857 
L 791.694583 117.222857 
L 791.694583 110.79 
L 791.694583 110.79 
L 791.694583 104.357143 
L 791.694583 104.357143 
L 791.694583 97.924286 
L 791.694583 97.924286 
L 791.694583 91.491429 
L 791.694583 91.491429 
L 791.694583 85.058571 
L 795.07105 85.058571 
L 795.07105 78.625714 
" clip-path="url(#p240c1d4ff0)" style="fill: none; stroke: #1f77b4; stroke-width: 2.5; stroke-linecap: round"/>
   </g>
   <g id="line2d_82">
    <path d="M 791.694583 335.682686 
L 791.694583 149.644457 
L 795.07105 149.644457 
L 795.07105 121.082571 
L 798.447517 121.082571 
L 798.447517 102.298629 
L 801.823983 102.298629 
L 801.823983 93.035314 
L 805.20045 93.035314 
L 805.20045 90.204857 
L 808.576917 90.204857 
L 808.576917 86.602457 
L 811.953383 86.602457 
L 811.953383 85.058571 
L 815.32985 85.058571 
L 815.32985 83.514686 
L 818.706317 83.514686 
L 818.706317 83.257371 
L 822.082783 83.257371 
L 822.082783 81.713486 
L 828.835717 81.713486 
L 828.835717 81.456171 
L 832.212183 81.456171 
L 832.212183 80.941543 
L 835.58865 80.941543 
L 835.58865 80.684229 
L 838.965117 80.684229 
L 838.965117 80.426914 
L 842.341583 80.426914 
L 842.341583 80.1696 
L 845.71805 80.1696 
L 845.71805 79.912286 
L 852.470983 79.912286 
L 852.470983 79.654971 
L 865.97685 79.654971 
L 865.97685 79.140343 
L 872.729783 79.140343 
L 872.729783 78.883029 
L 876.10625 78.883029 
L 876.10625 78.625714 
L 876.10625 78.625714 
" clip-path="url(#p240c1d4ff0)" style="fill: none; stroke: #000000; stroke-width: 2.5; stroke-linecap: round"/>
   </g>
   <g id="patch_13">
    <path d="M 791.694583 335.94 
L 791.694583 65.76 
" style="fill: none; stroke: #cccccc; stroke-linejoin: miter; stroke-linecap: square"/>
   </g>
   <g id="patch_14">
    <path d="M 1129.34125 335.94 
L 1129.34125 65.76 
" style="fill: none; stroke: #cccccc; stroke-linejoin: miter; stroke-linecap: square"/>
   </g>
   <g id="patch_15">
    <path d="M 791.694583 335.94 
L 1129.34125 335.94 
" style="fill: none; stroke: #cccccc; stroke-linejoin: miter; stroke-linecap: square"/>
   </g>
   <g id="patch_16">
    <path d="M 791.694583 65.76 
L 1129.34125 65.76 
" style="fill: none; stroke: #cccccc; stroke-linejoin: miter; stroke-linecap: square"/>
   </g>
   <g id="text_47">
    <!-- Healthcare -->
    <g style="fill: #262626" transform="translate(923.547604 59.76) scale(0.12 -0.12)">
     <defs>
      <path id="DejaVuSans-Bold-48" d="M 588 4666 
L 1791 4666 
L 1791 2888 
L 3566 2888 
L 3566 4666 
L 4769 4666 
L 4769 0 
L 3566 0 
L 3566 1978 
L 1791 1978 
L 1791 0 
L 588 0 
L 588 4666 
z
" transform="scale(0.015625)"/>
      <path id="DejaVuSans-Bold-68" d="M 4056 2131 
L 4056 0 
L 2931 0 
L 2931 347 
L 2931 1625 
Q 2931 2084 2911 2256 
Q 2891 2428 2841 2509 
Q 2775 2619 2662 2680 
Q 2550 2741 2406 2741 
Q 2056 2741 1856 2470 
Q 1656 2200 1656 1722 
L 1656 0 
L 538 0 
L 538 4863 
L 1656 4863 
L 1656 2988 
Q 1909 3294 2193 3439 
Q 2478 3584 2822 3584 
Q 3428 3584 3742 3212 
Q 4056 2841 4056 2131 
z
" transform="scale(0.015625)"/>
     </defs>
     <use xlink:href="#DejaVuSans-Bold-48"/>
     <use xlink:href="#DejaVuSans-Bold-65" transform="translate(83.691406 0)"/>
     <use xlink:href="#DejaVuSans-Bold-61" transform="translate(151.513672 0)"/>
     <use xlink:href="#DejaVuSans-Bold-6c" transform="translate(218.994141 0)"/>
     <use xlink:href="#DejaVuSans-Bold-74" transform="translate(253.271484 0)"/>
     <use xlink:href="#DejaVuSans-Bold-68" transform="translate(301.074219 0)"/>
     <use xlink:href="#DejaVuSans-Bold-63" transform="translate(372.265625 0)"/>
     <use xlink:href="#DejaVuSans-Bold-61" transform="translate(431.542969 0)"/>
     <use xlink:href="#DejaVuSans-Bold-72" transform="translate(499.023438 0)"/>
     <use xlink:href="#DejaVuSans-Bold-65" transform="translate(548.339844 0)"/>
    </g>
   </g>
   <g id="legend_3">
    <g id="line2d_83">
     <path d="M 1058.784063 309.607969 
L 1067.784063 309.607969 
L 1067.784063 309.607969 
L 1076.784063 309.607969 
L 1076.784063 309.607969 
" style="fill: none; stroke: #1f77b4; stroke-width: 2.5; stroke-linecap: round"/>
    </g>
    <g id="text_48">
     <!-- VBC -->
     <g style="fill: #262626" transform="translate(1083.984063 312.757969) scale(0.09 -0.09)">
      <use xlink:href="#DejaVuSans-56"/>
      <use xlink:href="#DejaVuSans-42" transform="translate(68.408203 0)"/>
      <use xlink:href="#DejaVuSans-43" transform="translate(135.261719 0)"/>
     </g>
    </g>
    <g id="line2d_84">
     <path d="M 1058.784063 322.818281 
L 1067.784063 322.818281 
L 1067.784063 322.818281 
L 1076.784063 322.818281 
L 1076.784063 322.818281 
" style="fill: none; stroke: #000000; stroke-width: 2.5; stroke-linecap: round"/>
    </g>
    <g id="text_49">
     <!-- Random -->
     <g style="fill: #262626" transform="translate(1083.984063 325.968281) scale(0.09 -0.09)">
      <use xlink:href="#DejaVuSans-52"/>
      <use xlink:href="#DejaVuSans-61" transform="translate(67.232422 0)"/>
      <use xlink:href="#DejaVuSans-6e" transform="translate(128.511719 0)"/>
      <use xlink:href="#DejaVuSans-64" transform="translate(191.890625 0)"/>
      <use xlink:href="#DejaVuSans-6f" transform="translate(255.367188 0)"/>
      <use xlink:href="#DejaVuSans-6d" transform="translate(316.548828 0)"/>
     </g>
    </g>
   </g>
  </g>
  <g id="text_50">
   <!-- Critical Epsilons of Voting Methods (Conservative Voters) for Topics: Abortion, Electoral College, Healthcare -->
   <g style="fill: #262626" transform="translate(145.81375 17.837812) scale(0.14 -0.14)">
    <defs>
     <path id="DejaVuSans-Bold-70" d="M 1656 506 
L 1656 -1331 
L 538 -1331 
L 538 3500 
L 1656 3500 
L 1656 2988 
Q 1888 3294 2169 3439 
Q 2450 3584 2816 3584 
Q 3463 3584 3878 3070 
Q 4294 2556 4294 1747 
Q 4294 938 3878 423 
Q 3463 -91 2816 -91 
Q 2450 -91 2169 54 
Q 1888 200 1656 506 
z
M 2400 2772 
Q 2041 2772 1848 2508 
Q 1656 2244 1656 1747 
Q 1656 1250 1848 986 
Q 2041 722 2400 722 
Q 2759 722 2948 984 
Q 3138 1247 3138 1747 
Q 3138 2247 2948 2509 
Q 2759 2772 2400 2772 
z
" transform="scale(0.015625)"/>
     <path id="DejaVuSans-Bold-73" d="M 3272 3391 
L 3272 2541 
Q 2913 2691 2578 2766 
Q 2244 2841 1947 2841 
Q 1628 2841 1473 2761 
Q 1319 2681 1319 2516 
Q 1319 2381 1436 2309 
Q 1553 2238 1856 2203 
L 2053 2175 
Q 2913 2066 3209 1816 
Q 3506 1566 3506 1031 
Q 3506 472 3093 190 
Q 2681 -91 1863 -91 
Q 1516 -91 1145 -36 
Q 775 19 384 128 
L 384 978 
Q 719 816 1070 734 
Q 1422 653 1784 653 
Q 2113 653 2278 743 
Q 2444 834 2444 1013 
Q 2444 1163 2330 1236 
Q 2216 1309 1875 1350 
L 1678 1375 
Q 931 1469 631 1722 
Q 331 1975 331 2491 
Q 331 3047 712 3315 
Q 1094 3584 1881 3584 
Q 2191 3584 2531 3537 
Q 2872 3491 3272 3391 
z
" transform="scale(0.015625)"/>
     <path id="DejaVuSans-Bold-66" d="M 2841 4863 
L 2841 4128 
L 2222 4128 
Q 1984 4128 1890 4042 
Q 1797 3956 1797 3744 
L 1797 3500 
L 2753 3500 
L 2753 2700 
L 1797 2700 
L 1797 0 
L 678 0 
L 678 2700 
L 122 2700 
L 122 3500 
L 678 3500 
L 678 3744 
Q 678 4316 997 4589 
Q 1316 4863 1984 4863 
L 2841 4863 
z
" transform="scale(0.015625)"/>
     <path id="DejaVuSans-Bold-56" d="M 31 4666 
L 1241 4666 
L 2478 1222 
L 3713 4666 
L 4922 4666 
L 3194 0 
L 1759 0 
L 31 4666 
z
" transform="scale(0.015625)"/>
     <path id="DejaVuSans-Bold-4d" d="M 588 4666 
L 2119 4666 
L 3181 2169 
L 4250 4666 
L 5778 4666 
L 5778 0 
L 4641 0 
L 4641 3413 
L 3566 897 
L 2803 897 
L 1728 3413 
L 1728 0 
L 588 0 
L 588 4666 
z
" transform="scale(0.015625)"/>
     <path id="DejaVuSans-Bold-64" d="M 2919 2988 
L 2919 4863 
L 4044 4863 
L 4044 0 
L 2919 0 
L 2919 506 
Q 2688 197 2409 53 
Q 2131 -91 1766 -91 
Q 1119 -91 703 423 
Q 288 938 288 1747 
Q 288 2556 703 3070 
Q 1119 3584 1766 3584 
Q 2128 3584 2408 3439 
Q 2688 3294 2919 2988 
z
M 2181 722 
Q 2541 722 2730 984 
Q 2919 1247 2919 1747 
Q 2919 2247 2730 2509 
Q 2541 2772 2181 2772 
Q 1825 2772 1636 2509 
Q 1447 2247 1447 1747 
Q 1447 1247 1636 984 
Q 1825 722 2181 722 
z
" transform="scale(0.015625)"/>
     <path id="DejaVuSans-Bold-28" d="M 2413 -844 
L 1484 -844 
Q 1006 -72 778 623 
Q 550 1319 550 2003 
Q 550 2688 779 3389 
Q 1009 4091 1484 4856 
L 2413 4856 
Q 2013 4116 1813 3408 
Q 1613 2700 1613 2009 
Q 1613 1319 1811 609 
Q 2009 -100 2413 -844 
z
" transform="scale(0.015625)"/>
     <path id="DejaVuSans-Bold-76" d="M 97 3500 
L 1216 3500 
L 2088 1081 
L 2956 3500 
L 4078 3500 
L 2700 0 
L 1472 0 
L 97 3500 
z
" transform="scale(0.015625)"/>
     <path id="DejaVuSans-Bold-29" d="M 513 -844 
Q 913 -100 1113 609 
Q 1313 1319 1313 2009 
Q 1313 2700 1113 3408 
Q 913 4116 513 4856 
L 1441 4856 
Q 1916 4091 2145 3389 
Q 2375 2688 2375 2003 
Q 2375 1319 2147 623 
Q 1919 -72 1441 -844 
L 513 -844 
z
" transform="scale(0.015625)"/>
     <path id="DejaVuSans-Bold-54" d="M 31 4666 
L 4331 4666 
L 4331 3756 
L 2784 3756 
L 2784 0 
L 1581 0 
L 1581 3756 
L 31 3756 
L 31 4666 
z
" transform="scale(0.015625)"/>
     <path id="DejaVuSans-Bold-3a" d="M 716 3500 
L 1844 3500 
L 1844 2291 
L 716 2291 
L 716 3500 
z
M 716 1209 
L 1844 1209 
L 1844 0 
L 716 0 
L 716 1209 
z
" transform="scale(0.015625)"/>
     <path id="DejaVuSans-Bold-2c" d="M 653 1209 
L 1778 1209 
L 1778 256 
L 1006 -909 
L 341 -909 
L 653 256 
L 653 1209 
z
" transform="scale(0.015625)"/>
    </defs>
    <use xlink:href="#DejaVuSans-Bold-43"/>
    <use xlink:href="#DejaVuSans-Bold-72" transform="translate(73.388672 0)"/>
    <use xlink:href="#DejaVuSans-Bold-69" transform="translate(122.705078 0)"/>
    <use xlink:href="#DejaVuSans-Bold-74" transform="translate(156.982422 0)"/>
    <use xlink:href="#DejaVuSans-Bold-69" transform="translate(204.785156 0)"/>
    <use xlink:href="#DejaVuSans-Bold-63" transform="translate(239.0625 0)"/>
    <use xlink:href="#DejaVuSans-Bold-61" transform="translate(298.339844 0)"/>
    <use xlink:href="#DejaVuSans-Bold-6c" transform="translate(365.820312 0)"/>
    <use xlink:href="#DejaVuSans-Bold-20" transform="translate(400.097656 0)"/>
    <use xlink:href="#DejaVuSans-Bold-45" transform="translate(434.912109 0)"/>
    <use xlink:href="#DejaVuSans-Bold-70" transform="translate(503.222656 0)"/>
    <use xlink:href="#DejaVuSans-Bold-73" transform="translate(574.804688 0)"/>
    <use xlink:href="#DejaVuSans-Bold-69" transform="translate(634.326172 0)"/>
    <use xlink:href="#DejaVuSans-Bold-6c" transform="translate(668.603516 0)"/>
    <use xlink:href="#DejaVuSans-Bold-6f" transform="translate(702.880859 0)"/>
    <use xlink:href="#DejaVuSans-Bold-6e" transform="translate(771.582031 0)"/>
    <use xlink:href="#DejaVuSans-Bold-73" transform="translate(842.773438 0)"/>
    <use xlink:href="#DejaVuSans-Bold-20" transform="translate(902.294922 0)"/>
    <use xlink:href="#DejaVuSans-Bold-6f" transform="translate(937.109375 0)"/>
    <use xlink:href="#DejaVuSans-Bold-66" transform="translate(1005.810547 0)"/>
    <use xlink:href="#DejaVuSans-Bold-20" transform="translate(1049.316406 0)"/>
    <use xlink:href="#DejaVuSans-Bold-56" transform="translate(1084.130859 0)"/>
    <use xlink:href="#DejaVuSans-Bold-6f" transform="translate(1156.023438 0)"/>
    <use xlink:href="#DejaVuSans-Bold-74" transform="translate(1224.724609 0)"/>
    <use xlink:href="#DejaVuSans-Bold-69" transform="translate(1272.527344 0)"/>
    <use xlink:href="#DejaVuSans-Bold-6e" transform="translate(1306.804688 0)"/>
    <use xlink:href="#DejaVuSans-Bold-67" transform="translate(1377.996094 0)"/>
    <use xlink:href="#DejaVuSans-Bold-20" transform="translate(1449.578125 0)"/>
    <use xlink:href="#DejaVuSans-Bold-4d" transform="translate(1484.392578 0)"/>
    <use xlink:href="#DejaVuSans-Bold-65" transform="translate(1583.904297 0)"/>
    <use xlink:href="#DejaVuSans-Bold-74" transform="translate(1651.726562 0)"/>
    <use xlink:href="#DejaVuSans-Bold-68" transform="translate(1699.529297 0)"/>
    <use xlink:href="#DejaVuSans-Bold-6f" transform="translate(1770.720703 0)"/>
    <use xlink:href="#DejaVuSans-Bold-64" transform="translate(1839.421875 0)"/>
    <use xlink:href="#DejaVuSans-Bold-73" transform="translate(1911.003906 0)"/>
    <use xlink:href="#DejaVuSans-Bold-20" transform="translate(1970.525391 0)"/>
    <use xlink:href="#DejaVuSans-Bold-28" transform="translate(2005.339844 0)"/>
    <use xlink:href="#DejaVuSans-Bold-43" transform="translate(2051.042969 0)"/>
    <use xlink:href="#DejaVuSans-Bold-6f" transform="translate(2124.431641 0)"/>
    <use xlink:href="#DejaVuSans-Bold-6e" transform="translate(2193.132812 0)"/>
    <use xlink:href="#DejaVuSans-Bold-73" transform="translate(2264.324219 0)"/>
    <use xlink:href="#DejaVuSans-Bold-65" transform="translate(2323.845703 0)"/>
    <use xlink:href="#DejaVuSans-Bold-72" transform="translate(2391.667969 0)"/>
    <use xlink:href="#DejaVuSans-Bold-76" transform="translate(2440.984375 0)"/>
    <use xlink:href="#DejaVuSans-Bold-61" transform="translate(2506.169922 0)"/>
    <use xlink:href="#DejaVuSans-Bold-74" transform="translate(2573.650391 0)"/>
    <use xlink:href="#DejaVuSans-Bold-69" transform="translate(2621.453125 0)"/>
    <use xlink:href="#DejaVuSans-Bold-76" transform="translate(2655.730469 0)"/>
    <use xlink:href="#DejaVuSans-Bold-65" transform="translate(2720.916016 0)"/>
    <use xlink:href="#DejaVuSans-Bold-20" transform="translate(2788.738281 0)"/>
    <use xlink:href="#DejaVuSans-Bold-56" transform="translate(2823.552734 0)"/>
    <use xlink:href="#DejaVuSans-Bold-6f" transform="translate(2895.445312 0)"/>
    <use xlink:href="#DejaVuSans-Bold-74" transform="translate(2964.146484 0)"/>
    <use xlink:href="#DejaVuSans-Bold-65" transform="translate(3011.949219 0)"/>
    <use xlink:href="#DejaVuSans-Bold-72" transform="translate(3079.771484 0)"/>
    <use xlink:href="#DejaVuSans-Bold-73" transform="translate(3129.087891 0)"/>
    <use xlink:href="#DejaVuSans-Bold-29" transform="translate(3188.609375 0)"/>
    <use xlink:href="#DejaVuSans-Bold-20" transform="translate(3234.3125 0)"/>
    <use xlink:href="#DejaVuSans-Bold-66" transform="translate(3269.126953 0)"/>
    <use xlink:href="#DejaVuSans-Bold-6f" transform="translate(3312.632812 0)"/>
    <use xlink:href="#DejaVuSans-Bold-72" transform="translate(3381.333984 0)"/>
    <use xlink:href="#DejaVuSans-Bold-20" transform="translate(3430.650391 0)"/>
    <use xlink:href="#DejaVuSans-Bold-54" transform="translate(3465.464844 0)"/>
    <use xlink:href="#DejaVuSans-Bold-6f" transform="translate(3520.427734 0)"/>
    <use xlink:href="#DejaVuSans-Bold-70" transform="translate(3589.128906 0)"/>
    <use xlink:href="#DejaVuSans-Bold-69" transform="translate(3660.710938 0)"/>
    <use xlink:href="#DejaVuSans-Bold-63" transform="translate(3694.988281 0)"/>
    <use xlink:href="#DejaVuSans-Bold-73" transform="translate(3754.265625 0)"/>
    <use xlink:href="#DejaVuSans-Bold-3a" transform="translate(3813.787109 0)"/>
    <use xlink:href="#DejaVuSans-Bold-20" transform="translate(3853.777344 0)"/>
    <use xlink:href="#DejaVuSans-Bold-41" transform="translate(3888.591797 0)"/>
    <use xlink:href="#DejaVuSans-Bold-62" transform="translate(3965.984375 0)"/>
    <use xlink:href="#DejaVuSans-Bold-6f" transform="translate(4037.566406 0)"/>
    <use xlink:href="#DejaVuSans-Bold-72" transform="translate(4106.267578 0)"/>
    <use xlink:href="#DejaVuSans-Bold-74" transform="translate(4155.583984 0)"/>
    <use xlink:href="#DejaVuSans-Bold-69" transform="translate(4203.386719 0)"/>
    <use xlink:href="#DejaVuSans-Bold-6f" transform="translate(4237.664062 0)"/>
    <use xlink:href="#DejaVuSans-Bold-6e" transform="translate(4306.365234 0)"/>
    <use xlink:href="#DejaVuSans-Bold-2c" transform="translate(4377.556641 0)"/>
    <use xlink:href="#DejaVuSans-Bold-20" transform="translate(4415.544922 0)"/>
    <use xlink:href="#DejaVuSans-Bold-45" transform="translate(4450.359375 0)"/>
    <use xlink:href="#DejaVuSans-Bold-6c" transform="translate(4518.669922 0)"/>
    <use xlink:href="#DejaVuSans-Bold-65" transform="translate(4552.947266 0)"/>
    <use xlink:href="#DejaVuSans-Bold-63" transform="translate(4620.769531 0)"/>
    <use xlink:href="#DejaVuSans-Bold-74" transform="translate(4680.046875 0)"/>
    <use xlink:href="#DejaVuSans-Bold-6f" transform="translate(4727.849609 0)"/>
    <use xlink:href="#DejaVuSans-Bold-72" transform="translate(4796.550781 0)"/>
    <use xlink:href="#DejaVuSans-Bold-61" transform="translate(4845.867188 0)"/>
    <use xlink:href="#DejaVuSans-Bold-6c" transform="translate(4913.347656 0)"/>
    <use xlink:href="#DejaVuSans-Bold-20" transform="translate(4947.625 0)"/>
    <use xlink:href="#DejaVuSans-Bold-43" transform="translate(4982.439453 0)"/>
    <use xlink:href="#DejaVuSans-Bold-6f" transform="translate(5055.828125 0)"/>
    <use xlink:href="#DejaVuSans-Bold-6c" transform="translate(5124.529297 0)"/>
    <use xlink:href="#DejaVuSans-Bold-6c" transform="translate(5158.806641 0)"/>
    <use xlink:href="#DejaVuSans-Bold-65" transform="translate(5193.083984 0)"/>
    <use xlink:href="#DejaVuSans-Bold-67" transform="translate(5260.90625 0)"/>
    <use xlink:href="#DejaVuSans-Bold-65" transform="translate(5332.488281 0)"/>
    <use xlink:href="#DejaVuSans-Bold-2c" transform="translate(5400.310547 0)"/>
    <use xlink:href="#DejaVuSans-Bold-20" transform="translate(5438.298828 0)"/>
    <use xlink:href="#DejaVuSans-Bold-48" transform="translate(5473.113281 0)"/>
    <use xlink:href="#DejaVuSans-Bold-65" transform="translate(5556.804688 0)"/>
    <use xlink:href="#DejaVuSans-Bold-61" transform="translate(5624.626953 0)"/>
    <use xlink:href="#DejaVuSans-Bold-6c" transform="translate(5692.107422 0)"/>
    <use xlink:href="#DejaVuSans-Bold-74" transform="translate(5726.384766 0)"/>
    <use xlink:href="#DejaVuSans-Bold-68" transform="translate(5774.1875 0)"/>
    <use xlink:href="#DejaVuSans-Bold-63" transform="translate(5845.378906 0)"/>
    <use xlink:href="#DejaVuSans-Bold-61" transform="translate(5904.65625 0)"/>
    <use xlink:href="#DejaVuSans-Bold-72" transform="translate(5972.136719 0)"/>
    <use xlink:href="#DejaVuSans-Bold-65" transform="translate(6021.453125 0)"/>
   </g>
  </g>
 </g>
 <defs>
  <clipPath id="p0ce4181a6c">
   <rect x="40.28125" y="65.76" width="337.646667" height="270.18"/>
  </clipPath>
  <clipPath id="p17e03f644a">
   <rect x="415.987917" y="65.76" width="337.646667" height="270.18"/>
  </clipPath>
  <clipPath id="p240c1d4ff0">
   <rect x="791.694583" y="65.76" width="337.646667" height="270.18"/>
  </clipPath>
 </defs>
</svg>
